G04*
G04 #@! TF.GenerationSoftware,Altium Limited,Altium Designer,23.3.1 (30)*
G04*
G04 Layer_Color=32896*
%FSLAX25Y25*%
%MOIN*%
G70*
G04*
G04 #@! TF.SameCoordinates,B46EFDDD-D530-4476-AF1B-D3F34534D4D2*
G04*
G04*
G04 #@! TF.FilePolarity,Positive*
G04*
G01*
G75*
%ADD10C,0.00984*%
%ADD11C,0.00787*%
%ADD12C,0.01000*%
%ADD39R,0.28740X0.02165*%
D10*
X58252Y-58339D02*
X57514Y-57912D01*
Y-58765D01*
X58252Y-58339D01*
X44110Y-198839D02*
X43372Y-198412D01*
Y-199265D01*
X44110Y-198839D01*
X57303Y-174500D02*
X56565Y-174074D01*
Y-174926D01*
X57303Y-174500D01*
D11*
X44902Y-192523D02*
X45099D01*
X44902Y-196066D02*
X45099D01*
X35630Y-124343D02*
X64370D01*
Y-129295D02*
Y-124343D01*
X35630Y-129295D02*
Y-124343D01*
X67406Y-67884D02*
Y-66116D01*
X55594Y-67884D02*
Y-66116D01*
X41157Y-208744D02*
Y-206256D01*
X60843Y-208744D02*
Y-206256D01*
X68902Y-210228D02*
X69098D01*
X68902Y-213772D02*
X69098D01*
X68902Y-201228D02*
X69098D01*
X68902Y-204772D02*
X69098D01*
X32902D02*
X33098D01*
X32902Y-201228D02*
X33098D01*
X32902Y-213772D02*
X33098D01*
X32902Y-210228D02*
X33098D01*
X58332Y-154445D02*
X61668D01*
X58332Y-147555D02*
X61668D01*
X38332D02*
X41668D01*
X38332Y-154445D02*
X41668D01*
X46752Y-177748D02*
X53248D01*
X46752Y-171252D02*
X53248D01*
X61039Y-102012D02*
X65961D01*
X61039Y-90988D02*
X65961D01*
X34039Y-102012D02*
X38961D01*
X34039Y-90988D02*
X38961D01*
X61008Y-78146D02*
X61992D01*
X61008Y-83854D02*
X61992D01*
X31291Y-73449D02*
Y-71786D01*
X39710D02*
X42709D01*
X31291D02*
X34290D01*
X42709Y-73449D02*
Y-71786D01*
D12*
X57999Y-195500D02*
Y-192500D01*
X56500D01*
X56000Y-193000D01*
Y-194000D01*
X56500Y-194500D01*
X57999D01*
X56999D02*
X56000Y-195500D01*
X53001Y-192500D02*
X55000D01*
Y-194000D01*
X54001Y-193500D01*
X53501D01*
X53001Y-194000D01*
Y-195000D01*
X53501Y-195500D01*
X54500D01*
X55000Y-195000D01*
X51999Y-104000D02*
Y-107000D01*
X50000D01*
X49000D02*
X48001D01*
X48500D01*
Y-104000D01*
X49000Y-104500D01*
X80748Y-67000D02*
Y-64001D01*
X79249D01*
X78749Y-64500D01*
Y-65500D01*
X79249Y-66000D01*
X80748D01*
X79749D02*
X78749Y-67000D01*
X76250D02*
X77250D01*
X77749Y-66500D01*
Y-65500D01*
X77250Y-65000D01*
X76250D01*
X75750Y-65500D01*
Y-66000D01*
X77749D01*
X73751Y-67999D02*
X73251D01*
X72751Y-67500D01*
Y-65000D01*
X74251D01*
X74750Y-65500D01*
Y-66500D01*
X74251Y-67000D01*
X72751D01*
X71751D02*
Y-66500D01*
X71251D01*
Y-67000D01*
X71751D01*
X63496Y-222500D02*
Y-225500D01*
X61996D01*
X61497Y-225000D01*
Y-224500D01*
X61996Y-224000D01*
X63496D01*
X61996D01*
X61497Y-223500D01*
Y-223000D01*
X61996Y-222500D01*
X63496D01*
X59997Y-223500D02*
X58997D01*
X58498Y-224000D01*
Y-225500D01*
X59997D01*
X60497Y-225000D01*
X59997Y-224500D01*
X58498D01*
X57498Y-223500D02*
Y-225500D01*
Y-224500D01*
X56998Y-224000D01*
X56498Y-223500D01*
X55998D01*
X53999Y-225500D02*
X52999D01*
X52500Y-225000D01*
Y-224000D01*
X52999Y-223500D01*
X53999D01*
X54499Y-224000D01*
Y-225000D01*
X53999Y-225500D01*
X51500D02*
Y-223500D01*
X51000D01*
X50500Y-224000D01*
Y-225500D01*
Y-224000D01*
X50000Y-223500D01*
X49501Y-224000D01*
Y-225500D01*
X47001D02*
X48001D01*
X48501Y-225000D01*
Y-224000D01*
X48001Y-223500D01*
X47001D01*
X46501Y-224000D01*
Y-224500D01*
X48501D01*
X45002Y-223000D02*
Y-223500D01*
X45502D01*
X44502D01*
X45002D01*
Y-225000D01*
X44502Y-225500D01*
X41503D02*
X42503D01*
X43003Y-225000D01*
Y-224000D01*
X42503Y-223500D01*
X41503D01*
X41003Y-224000D01*
Y-224500D01*
X43003D01*
X40004Y-223500D02*
Y-225500D01*
Y-224500D01*
X39504Y-224000D01*
X39004Y-223500D01*
X38504D01*
X93499Y-213499D02*
Y-210501D01*
X92000D01*
X91500Y-211000D01*
Y-212000D01*
X92000Y-212500D01*
X93499D01*
X92500D02*
X91500Y-213499D01*
X90500Y-211000D02*
X90000Y-210501D01*
X89001D01*
X88501Y-211000D01*
Y-211500D01*
X89001Y-212000D01*
X89500D01*
X89001D01*
X88501Y-212500D01*
Y-213000D01*
X89001Y-213499D01*
X90000D01*
X90500Y-213000D01*
X92999Y-204500D02*
Y-201501D01*
X91500D01*
X91000Y-202000D01*
Y-203000D01*
X91500Y-203500D01*
X92999D01*
X92000D02*
X91000Y-204500D01*
X88501D02*
Y-201501D01*
X90000Y-203000D01*
X88001D01*
X11999Y-203999D02*
Y-201000D01*
X10500D01*
X10000Y-201500D01*
Y-202500D01*
X10500Y-203000D01*
X11999D01*
X11000D02*
X10000Y-203999D01*
X9000D02*
X8001D01*
X8501D01*
Y-201000D01*
X9000Y-201500D01*
X11999Y-213000D02*
Y-210000D01*
X10500D01*
X10000Y-210500D01*
Y-211500D01*
X10500Y-212000D01*
X11999D01*
X11000D02*
X10000Y-213000D01*
X7001D02*
X9000D01*
X7001Y-211000D01*
Y-210500D01*
X7501Y-210000D01*
X8500D01*
X9000Y-210500D01*
X73000Y-150000D02*
X73500Y-149501D01*
X74499D01*
X74999Y-150000D01*
Y-152000D01*
X74499Y-152499D01*
X73500D01*
X73000Y-152000D01*
X70501Y-152499D02*
Y-149501D01*
X72000Y-151000D01*
X70001D01*
X28000Y-150000D02*
X28500Y-149501D01*
X29499D01*
X29999Y-150000D01*
Y-152000D01*
X29499Y-152499D01*
X28500D01*
X28000Y-152000D01*
X27000Y-150000D02*
X26500Y-149501D01*
X25501D01*
X25001Y-150000D01*
Y-150500D01*
X25501Y-151000D01*
X26000D01*
X25501D01*
X25001Y-151500D01*
Y-152000D01*
X25501Y-152499D01*
X26500D01*
X27000Y-152000D01*
X52499Y-163499D02*
Y-160501D01*
X51000D01*
X50500Y-161000D01*
Y-162000D01*
X51000Y-162500D01*
X52499D01*
X51499D02*
X50500Y-163499D01*
X47501Y-160501D02*
X48500Y-161000D01*
X49500Y-162000D01*
Y-163000D01*
X49000Y-163499D01*
X48001D01*
X47501Y-163000D01*
Y-162500D01*
X48001Y-162000D01*
X49500D01*
X53999Y-180500D02*
Y-183500D01*
X51999D01*
X49000Y-180500D02*
X51000D01*
Y-183500D01*
X49000D01*
X51000Y-182000D02*
X50000D01*
X48001Y-180500D02*
Y-183500D01*
X46501D01*
X46001Y-183000D01*
Y-181000D01*
X46501Y-180500D01*
X48001D01*
X64000Y-86500D02*
X64500Y-86001D01*
X65499D01*
X65999Y-86500D01*
Y-88500D01*
X65499Y-88999D01*
X64500D01*
X64000Y-88500D01*
X61001Y-86001D02*
X63000D01*
Y-87500D01*
X62001Y-87000D01*
X61501D01*
X61001Y-87500D01*
Y-88500D01*
X61501Y-88999D01*
X62500D01*
X63000Y-88500D01*
X37000Y-86500D02*
X37500Y-86001D01*
X38500D01*
X38999Y-86500D01*
Y-88500D01*
X38500Y-88999D01*
X37500D01*
X37000Y-88500D01*
X36000Y-88999D02*
X35001D01*
X35500D01*
Y-86001D01*
X36000Y-86500D01*
X51000Y-80000D02*
X51500Y-79501D01*
X52499D01*
X52999Y-80000D01*
Y-82000D01*
X52499Y-82499D01*
X51500D01*
X51000Y-82000D01*
X48001Y-82499D02*
X50000D01*
X48001Y-80500D01*
Y-80000D01*
X48501Y-79501D01*
X49500D01*
X50000Y-80000D01*
X45497Y-63499D02*
Y-60501D01*
X44498Y-61500D01*
X43498Y-60501D01*
Y-63499D01*
X40999Y-60501D02*
X41998D01*
X42498Y-61000D01*
Y-63000D01*
X41998Y-63499D01*
X40999D01*
X40499Y-63000D01*
Y-61000D01*
X40999Y-60501D01*
X37500Y-61000D02*
X38000Y-60501D01*
X38999D01*
X39499Y-61000D01*
Y-61500D01*
X38999Y-62000D01*
X38000D01*
X37500Y-62500D01*
Y-63000D01*
X38000Y-63499D01*
X38999D01*
X39499Y-63000D01*
X34501Y-60501D02*
X36500D01*
Y-62000D01*
X35500D01*
X36500D01*
Y-63499D01*
X31502Y-60501D02*
X33501D01*
Y-63499D01*
X31502D01*
X33501Y-62000D02*
X32501D01*
X30502Y-60501D02*
X28503D01*
X29502D01*
Y-63499D01*
D39*
X50130Y-124925D02*
D03*
M02*
