G04*
G04 #@! TF.GenerationSoftware,Altium Limited,Altium Designer,23.3.1 (30)*
G04*
G04 Layer_Physical_Order=1*
G04 Layer_Color=255*
%FSLAX25Y25*%
%MOIN*%
G70*
G04*
G04 #@! TF.SameCoordinates,A76074B7-2CB3-4B1A-B050-79AA5906FBBA*
G04*
G04*
G04 #@! TF.FilePolarity,Positive*
G04*
G01*
G75*
%ADD14C,0.05567*%
%ADD15R,0.05567X0.05567*%
%ADD19C,0.02000*%
%ADD20C,0.09000*%
%ADD21C,0.07677*%
%ADD22R,0.07677X0.07677*%
%ADD23C,0.05000*%
G36*
X100000Y-250500D02*
X500D01*
X0Y-250000D01*
Y0D01*
X100000D01*
Y-250500D01*
D02*
G37*
%LPC*%
G36*
X90724Y-4500D02*
X90500D01*
Y-9500D01*
X95500D01*
Y-9276D01*
X95125Y-7877D01*
X94401Y-6623D01*
X93377Y-5599D01*
X92123Y-4875D01*
X90724Y-4500D01*
D02*
G37*
G36*
X89500D02*
X89276D01*
X87877Y-4875D01*
X86623Y-5599D01*
X85599Y-6623D01*
X84875Y-7877D01*
X84500Y-9276D01*
Y-9500D01*
X89500D01*
Y-4500D01*
D02*
G37*
G36*
X10724D02*
X10500D01*
Y-9500D01*
X15500D01*
Y-9276D01*
X15125Y-7877D01*
X14401Y-6623D01*
X13377Y-5599D01*
X12123Y-4875D01*
X10724Y-4500D01*
D02*
G37*
G36*
X9500D02*
X9276D01*
X7877Y-4875D01*
X6623Y-5599D01*
X5599Y-6623D01*
X4875Y-7877D01*
X4500Y-9276D01*
Y-9500D01*
X9500D01*
Y-4500D01*
D02*
G37*
G36*
X95500Y-10500D02*
X90500D01*
Y-15500D01*
X90724D01*
X92123Y-15125D01*
X93377Y-14401D01*
X94401Y-13377D01*
X95125Y-12123D01*
X95500Y-10724D01*
Y-10500D01*
D02*
G37*
G36*
X89500D02*
X84500D01*
Y-10724D01*
X84875Y-12123D01*
X85599Y-13377D01*
X86623Y-14401D01*
X87877Y-15125D01*
X89276Y-15500D01*
X89500D01*
Y-10500D01*
D02*
G37*
G36*
X15500D02*
X10500D01*
Y-15500D01*
X10724D01*
X12123Y-15125D01*
X13377Y-14401D01*
X14401Y-13377D01*
X15125Y-12123D01*
X15500Y-10724D01*
Y-10500D01*
D02*
G37*
G36*
X9500D02*
X4500D01*
Y-10724D01*
X4875Y-12123D01*
X5599Y-13377D01*
X6623Y-14401D01*
X7877Y-15125D01*
X9276Y-15500D01*
X9500D01*
Y-10500D01*
D02*
G37*
G36*
X69137Y-13161D02*
X69000D01*
Y-17500D01*
X73339D01*
Y-17363D01*
X73009Y-16132D01*
X72372Y-15029D01*
X71471Y-14128D01*
X70368Y-13491D01*
X69137Y-13161D01*
D02*
G37*
G36*
X68000D02*
X67863D01*
X66632Y-13491D01*
X65529Y-14128D01*
X64628Y-15029D01*
X63991Y-16132D01*
X63661Y-17363D01*
Y-17500D01*
X68000D01*
Y-13161D01*
D02*
G37*
G36*
X73339Y-18500D02*
X69000D01*
Y-22839D01*
X69137D01*
X70368Y-22509D01*
X71471Y-21872D01*
X72372Y-20971D01*
X73009Y-19868D01*
X73339Y-18637D01*
Y-18500D01*
D02*
G37*
G36*
X68000D02*
X63661D01*
Y-18637D01*
X63991Y-19868D01*
X64628Y-20971D01*
X65529Y-21872D01*
X66632Y-22509D01*
X67863Y-22839D01*
X68000D01*
Y-18500D01*
D02*
G37*
G36*
X35637Y-13161D02*
X34363D01*
X33132Y-13491D01*
X32029Y-14128D01*
X31128Y-15029D01*
X30491Y-16132D01*
X30161Y-17363D01*
Y-18637D01*
X30491Y-19868D01*
X31128Y-20971D01*
X32029Y-21872D01*
X33132Y-22509D01*
X34363Y-22839D01*
X35637D01*
X36868Y-22509D01*
X37971Y-21872D01*
X38872Y-20971D01*
X39509Y-19868D01*
X39839Y-18637D01*
Y-17363D01*
X39509Y-16132D01*
X38872Y-15029D01*
X37971Y-14128D01*
X36868Y-13491D01*
X35637Y-13161D01*
D02*
G37*
G36*
X73339Y-32846D02*
X63661D01*
Y-42524D01*
X73339D01*
Y-32846D01*
D02*
G37*
G36*
X39839D02*
X30161D01*
Y-42524D01*
X39839D01*
Y-32846D01*
D02*
G37*
G36*
X80498Y-70717D02*
X79502D01*
X78540Y-70974D01*
X77677Y-71473D01*
X76973Y-72177D01*
X76474Y-73040D01*
X76217Y-74002D01*
Y-74998D01*
X76474Y-75960D01*
X76973Y-76823D01*
X77677Y-77527D01*
X78540Y-78026D01*
X79502Y-78284D01*
X80498D01*
X81460Y-78026D01*
X82323Y-77527D01*
X83027Y-76823D01*
X83526Y-75960D01*
X83784Y-74998D01*
Y-74002D01*
X83526Y-73040D01*
X83027Y-72177D01*
X82323Y-71473D01*
X81460Y-70974D01*
X80498Y-70717D01*
D02*
G37*
G36*
X23784D02*
X16217D01*
Y-78284D01*
X23784D01*
Y-70717D01*
D02*
G37*
G36*
X80500Y-80717D02*
Y-84000D01*
X83783D01*
X83526Y-83040D01*
X83027Y-82177D01*
X82323Y-81472D01*
X81460Y-80974D01*
X80500Y-80717D01*
D02*
G37*
G36*
X79500D02*
X78540Y-80974D01*
X77677Y-81472D01*
X76973Y-82177D01*
X76474Y-83040D01*
X76217Y-84000D01*
X79500D01*
Y-80717D01*
D02*
G37*
G36*
X83783Y-85000D02*
X80500D01*
Y-88283D01*
X81460Y-88026D01*
X82323Y-87528D01*
X83027Y-86823D01*
X83526Y-85960D01*
X83783Y-85000D01*
D02*
G37*
G36*
X79500D02*
X76217D01*
X76474Y-85960D01*
X76973Y-86823D01*
X77677Y-87528D01*
X78540Y-88026D01*
X79500Y-88283D01*
Y-85000D01*
D02*
G37*
G36*
X20498Y-80717D02*
X19502D01*
X18540Y-80974D01*
X17677Y-81472D01*
X16973Y-82177D01*
X16474Y-83040D01*
X16217Y-84002D01*
Y-84998D01*
X16474Y-85960D01*
X16973Y-86823D01*
X17677Y-87528D01*
X18540Y-88026D01*
X19502Y-88283D01*
X20498D01*
X21460Y-88026D01*
X22323Y-87528D01*
X23028Y-86823D01*
X23526Y-85960D01*
X23784Y-84998D01*
Y-84002D01*
X23526Y-83040D01*
X23028Y-82177D01*
X22323Y-81472D01*
X21460Y-80974D01*
X20498Y-80717D01*
D02*
G37*
G36*
X80498Y-90716D02*
X79502D01*
X78540Y-90974D01*
X77677Y-91473D01*
X76973Y-92177D01*
X76474Y-93040D01*
X76217Y-94002D01*
Y-94998D01*
X76474Y-95960D01*
X76973Y-96823D01*
X77677Y-97527D01*
X78540Y-98026D01*
X79502Y-98283D01*
X80498D01*
X81460Y-98026D01*
X82323Y-97527D01*
X83027Y-96823D01*
X83526Y-95960D01*
X83784Y-94998D01*
Y-94002D01*
X83526Y-93040D01*
X83027Y-92177D01*
X82323Y-91473D01*
X81460Y-90974D01*
X80498Y-90716D01*
D02*
G37*
G36*
X20498D02*
X19502D01*
X18540Y-90974D01*
X17677Y-91473D01*
X16973Y-92177D01*
X16474Y-93040D01*
X16217Y-94002D01*
Y-94998D01*
X16474Y-95960D01*
X16973Y-96823D01*
X17677Y-97527D01*
X18540Y-98026D01*
X19502Y-98283D01*
X20498D01*
X21460Y-98026D01*
X22323Y-97527D01*
X23028Y-96823D01*
X23526Y-95960D01*
X23784Y-94998D01*
Y-94002D01*
X23526Y-93040D01*
X23028Y-92177D01*
X22323Y-91473D01*
X21460Y-90974D01*
X20498Y-90716D01*
D02*
G37*
G36*
X20500Y-100717D02*
Y-104000D01*
X23783D01*
X23526Y-103040D01*
X23028Y-102177D01*
X22323Y-101472D01*
X21460Y-100974D01*
X20500Y-100717D01*
D02*
G37*
G36*
X19500D02*
X18540Y-100974D01*
X17677Y-101472D01*
X16973Y-102177D01*
X16474Y-103040D01*
X16217Y-104000D01*
X19500D01*
Y-100717D01*
D02*
G37*
G36*
X23783Y-105000D02*
X20500D01*
Y-108283D01*
X21460Y-108026D01*
X22323Y-107527D01*
X23028Y-106823D01*
X23526Y-105960D01*
X23783Y-105000D01*
D02*
G37*
G36*
X19500D02*
X16217D01*
X16474Y-105960D01*
X16973Y-106823D01*
X17677Y-107527D01*
X18540Y-108026D01*
X19500Y-108283D01*
Y-105000D01*
D02*
G37*
G36*
X80498Y-100716D02*
X79502D01*
X78540Y-100974D01*
X77677Y-101472D01*
X76973Y-102177D01*
X76474Y-103040D01*
X76217Y-104002D01*
Y-104998D01*
X76474Y-105960D01*
X76973Y-106823D01*
X77677Y-107527D01*
X78540Y-108026D01*
X79502Y-108283D01*
X80498D01*
X81460Y-108026D01*
X82323Y-107527D01*
X83027Y-106823D01*
X83526Y-105960D01*
X83784Y-104998D01*
Y-104002D01*
X83526Y-103040D01*
X83027Y-102177D01*
X82323Y-101472D01*
X81460Y-100974D01*
X80498Y-100716D01*
D02*
G37*
G36*
Y-110716D02*
X79502D01*
X78540Y-110974D01*
X77677Y-111472D01*
X76973Y-112177D01*
X76474Y-113040D01*
X76217Y-114002D01*
Y-114998D01*
X76474Y-115960D01*
X76973Y-116823D01*
X77677Y-117527D01*
X78540Y-118026D01*
X79502Y-118283D01*
X80498D01*
X81460Y-118026D01*
X82323Y-117527D01*
X83027Y-116823D01*
X83526Y-115960D01*
X83784Y-114998D01*
Y-114002D01*
X83526Y-113040D01*
X83027Y-112177D01*
X82323Y-111472D01*
X81460Y-110974D01*
X80498Y-110716D01*
D02*
G37*
G36*
X20498D02*
X19502D01*
X18540Y-110974D01*
X17677Y-111472D01*
X16973Y-112177D01*
X16474Y-113040D01*
X16217Y-114002D01*
Y-114998D01*
X16474Y-115960D01*
X16973Y-116823D01*
X17677Y-117527D01*
X18540Y-118026D01*
X19502Y-118283D01*
X20498D01*
X21460Y-118026D01*
X22323Y-117527D01*
X23028Y-116823D01*
X23526Y-115960D01*
X23784Y-114998D01*
Y-114002D01*
X23526Y-113040D01*
X23028Y-112177D01*
X22323Y-111472D01*
X21460Y-110974D01*
X20498Y-110716D01*
D02*
G37*
G36*
X80498Y-120717D02*
X79502D01*
X78540Y-120974D01*
X77677Y-121473D01*
X76973Y-122177D01*
X76474Y-123040D01*
X76217Y-124002D01*
Y-124998D01*
X76474Y-125960D01*
X76973Y-126823D01*
X77677Y-127527D01*
X78540Y-128026D01*
X79502Y-128284D01*
X80498D01*
X81460Y-128026D01*
X82323Y-127527D01*
X83027Y-126823D01*
X83526Y-125960D01*
X83784Y-124998D01*
Y-124002D01*
X83526Y-123040D01*
X83027Y-122177D01*
X82323Y-121473D01*
X81460Y-120974D01*
X80498Y-120717D01*
D02*
G37*
G36*
X20498D02*
X19502D01*
X18540Y-120974D01*
X17677Y-121473D01*
X16973Y-122177D01*
X16474Y-123040D01*
X16217Y-124002D01*
Y-124998D01*
X16474Y-125960D01*
X16973Y-126823D01*
X17677Y-127527D01*
X18540Y-128026D01*
X19502Y-128284D01*
X20498D01*
X21460Y-128026D01*
X22323Y-127527D01*
X23028Y-126823D01*
X23526Y-125960D01*
X23784Y-124998D01*
Y-124002D01*
X23526Y-123040D01*
X23028Y-122177D01*
X22323Y-121473D01*
X21460Y-120974D01*
X20498Y-120717D01*
D02*
G37*
G36*
X51961Y-64500D02*
X51039D01*
X50149Y-64739D01*
X49351Y-65199D01*
X48699Y-65851D01*
X48239Y-66649D01*
X48000Y-67539D01*
Y-68461D01*
X48239Y-69351D01*
X48699Y-70149D01*
X49351Y-70801D01*
X49461Y-70864D01*
Y-95155D01*
X26058Y-118558D01*
X25616Y-119220D01*
X25461Y-120000D01*
Y-132636D01*
X25351Y-132699D01*
X24699Y-133351D01*
X24284Y-134071D01*
X23989Y-134068D01*
X23849Y-134023D01*
X23780Y-133988D01*
X23526Y-133040D01*
X23028Y-132177D01*
X22323Y-131473D01*
X21460Y-130974D01*
X20498Y-130717D01*
X19502D01*
X18540Y-130974D01*
X17677Y-131473D01*
X16973Y-132177D01*
X16474Y-133040D01*
X16217Y-134002D01*
Y-134998D01*
X16474Y-135960D01*
X16973Y-136823D01*
X17677Y-137528D01*
X18540Y-138026D01*
X19502Y-138284D01*
X20498D01*
X21460Y-138026D01*
X22323Y-137528D01*
X23028Y-136823D01*
X23511Y-135986D01*
X23651Y-135960D01*
X23752Y-135961D01*
X24022Y-136041D01*
X24238Y-136851D01*
X24699Y-137649D01*
X25351Y-138301D01*
X26149Y-138761D01*
X27039Y-139000D01*
X27961D01*
X28851Y-138761D01*
X29649Y-138301D01*
X30301Y-137649D01*
X30762Y-136851D01*
X31000Y-135961D01*
Y-135039D01*
X30762Y-134149D01*
X30301Y-133351D01*
X29649Y-132699D01*
X29539Y-132636D01*
Y-120845D01*
X52942Y-97442D01*
X52942Y-97442D01*
X53384Y-96780D01*
X53539Y-96000D01*
X53539Y-96000D01*
Y-70864D01*
X53649Y-70801D01*
X54301Y-70149D01*
X54761Y-69351D01*
X55000Y-68461D01*
Y-67539D01*
X54761Y-66649D01*
X54301Y-65851D01*
X53649Y-65199D01*
X52851Y-64739D01*
X51961Y-64500D01*
D02*
G37*
G36*
X80498Y-130717D02*
X79502D01*
X78540Y-130974D01*
X77677Y-131473D01*
X76973Y-132177D01*
X76474Y-133040D01*
X76217Y-134002D01*
Y-134998D01*
X76474Y-135960D01*
X76973Y-136823D01*
X77677Y-137528D01*
X78540Y-138026D01*
X79502Y-138284D01*
X80498D01*
X81460Y-138026D01*
X82323Y-137528D01*
X83027Y-136823D01*
X83526Y-135960D01*
X83784Y-134998D01*
Y-134002D01*
X83526Y-133040D01*
X83027Y-132177D01*
X82323Y-131473D01*
X81460Y-130974D01*
X80498Y-130717D01*
D02*
G37*
G36*
Y-140717D02*
X79502D01*
X78540Y-140974D01*
X77677Y-141472D01*
X76973Y-142177D01*
X76474Y-143040D01*
X76217Y-144002D01*
Y-144998D01*
X76474Y-145960D01*
X76973Y-146823D01*
X77677Y-147528D01*
X78540Y-148026D01*
X79502Y-148284D01*
X80498D01*
X81460Y-148026D01*
X82323Y-147528D01*
X83027Y-146823D01*
X83526Y-145960D01*
X83784Y-144998D01*
Y-144002D01*
X83526Y-143040D01*
X83027Y-142177D01*
X82323Y-141472D01*
X81460Y-140974D01*
X80498Y-140717D01*
D02*
G37*
G36*
X20498D02*
X19502D01*
X18540Y-140974D01*
X17677Y-141472D01*
X16973Y-142177D01*
X16474Y-143040D01*
X16217Y-144002D01*
Y-144998D01*
X16474Y-145960D01*
X16973Y-146823D01*
X17677Y-147528D01*
X18540Y-148026D01*
X19502Y-148284D01*
X20498D01*
X21460Y-148026D01*
X22323Y-147528D01*
X23028Y-146823D01*
X23526Y-145960D01*
X23784Y-144998D01*
Y-144002D01*
X23526Y-143040D01*
X23028Y-142177D01*
X22323Y-141472D01*
X21460Y-140974D01*
X20498Y-140717D01*
D02*
G37*
G36*
X80498Y-150716D02*
X79502D01*
X78540Y-150974D01*
X77677Y-151472D01*
X76973Y-152177D01*
X76474Y-153040D01*
X76217Y-154002D01*
Y-154998D01*
X76474Y-155960D01*
X76973Y-156823D01*
X77677Y-157527D01*
X78540Y-158026D01*
X79502Y-158283D01*
X80498D01*
X81460Y-158026D01*
X82323Y-157527D01*
X83027Y-156823D01*
X83526Y-155960D01*
X83784Y-154998D01*
Y-154002D01*
X83526Y-153040D01*
X83027Y-152177D01*
X82323Y-151472D01*
X81460Y-150974D01*
X80498Y-150716D01*
D02*
G37*
G36*
X20498D02*
X19502D01*
X18540Y-150974D01*
X17677Y-151472D01*
X16973Y-152177D01*
X16474Y-153040D01*
X16217Y-154002D01*
Y-154998D01*
X16474Y-155960D01*
X16973Y-156823D01*
X17677Y-157527D01*
X18540Y-158026D01*
X19502Y-158283D01*
X20498D01*
X21460Y-158026D01*
X22323Y-157527D01*
X23028Y-156823D01*
X23526Y-155960D01*
X23784Y-154998D01*
Y-154002D01*
X23526Y-153040D01*
X23028Y-152177D01*
X22323Y-151472D01*
X21460Y-150974D01*
X20498Y-150716D01*
D02*
G37*
G36*
X80498Y-160716D02*
X79502D01*
X78540Y-160974D01*
X77677Y-161472D01*
X76973Y-162177D01*
X76474Y-163040D01*
X76217Y-164002D01*
Y-164998D01*
X76474Y-165960D01*
X76973Y-166823D01*
X77677Y-167527D01*
X78540Y-168026D01*
X79502Y-168283D01*
X80498D01*
X81460Y-168026D01*
X82323Y-167527D01*
X83027Y-166823D01*
X83526Y-165960D01*
X83784Y-164998D01*
Y-164002D01*
X83526Y-163040D01*
X83027Y-162177D01*
X82323Y-161472D01*
X81460Y-160974D01*
X80498Y-160716D01*
D02*
G37*
G36*
X20498D02*
X19502D01*
X18540Y-160974D01*
X17677Y-161472D01*
X16973Y-162177D01*
X16474Y-163040D01*
X16217Y-164002D01*
Y-164998D01*
X16474Y-165960D01*
X16973Y-166823D01*
X17677Y-167527D01*
X18540Y-168026D01*
X19502Y-168283D01*
X20498D01*
X21460Y-168026D01*
X22323Y-167527D01*
X23028Y-166823D01*
X23526Y-165960D01*
X23784Y-164998D01*
Y-164002D01*
X23526Y-163040D01*
X23028Y-162177D01*
X22323Y-161472D01*
X21460Y-160974D01*
X20498Y-160716D01*
D02*
G37*
G36*
X80498Y-170717D02*
X79502D01*
X78540Y-170974D01*
X77677Y-171473D01*
X76973Y-172177D01*
X76474Y-173040D01*
X76217Y-174002D01*
Y-174998D01*
X76474Y-175960D01*
X76973Y-176823D01*
X77677Y-177527D01*
X78540Y-178026D01*
X79502Y-178284D01*
X80498D01*
X81460Y-178026D01*
X82323Y-177527D01*
X83027Y-176823D01*
X83526Y-175960D01*
X83784Y-174998D01*
Y-174002D01*
X83526Y-173040D01*
X83027Y-172177D01*
X82323Y-171473D01*
X81460Y-170974D01*
X80498Y-170717D01*
D02*
G37*
G36*
X20498D02*
X19502D01*
X18540Y-170974D01*
X17677Y-171473D01*
X16973Y-172177D01*
X16474Y-173040D01*
X16217Y-174002D01*
Y-174998D01*
X16474Y-175960D01*
X16973Y-176823D01*
X17677Y-177527D01*
X18540Y-178026D01*
X19502Y-178284D01*
X20498D01*
X21460Y-178026D01*
X22323Y-177527D01*
X23028Y-176823D01*
X23526Y-175960D01*
X23784Y-174998D01*
Y-174002D01*
X23526Y-173040D01*
X23028Y-172177D01*
X22323Y-171473D01*
X21460Y-170974D01*
X20498Y-170717D01*
D02*
G37*
G36*
X80498Y-180717D02*
X79502D01*
X78540Y-180974D01*
X77677Y-181473D01*
X76973Y-182177D01*
X76474Y-183040D01*
X76217Y-184002D01*
Y-184998D01*
X76474Y-185960D01*
X76973Y-186823D01*
X77677Y-187528D01*
X78540Y-188026D01*
X79502Y-188284D01*
X80498D01*
X81460Y-188026D01*
X82323Y-187528D01*
X83027Y-186823D01*
X83526Y-185960D01*
X83784Y-184998D01*
Y-184002D01*
X83526Y-183040D01*
X83027Y-182177D01*
X82323Y-181473D01*
X81460Y-180974D01*
X80498Y-180717D01*
D02*
G37*
G36*
X20498D02*
X19502D01*
X18540Y-180974D01*
X17677Y-181473D01*
X16973Y-182177D01*
X16474Y-183040D01*
X16217Y-184002D01*
Y-184998D01*
X16474Y-185960D01*
X16973Y-186823D01*
X17677Y-187528D01*
X18540Y-188026D01*
X19502Y-188284D01*
X20498D01*
X21460Y-188026D01*
X22323Y-187528D01*
X23028Y-186823D01*
X23526Y-185960D01*
X23784Y-184998D01*
Y-184002D01*
X23526Y-183040D01*
X23028Y-182177D01*
X22323Y-181473D01*
X21460Y-180974D01*
X20498Y-180717D01*
D02*
G37*
G36*
X61461Y-164500D02*
X60539D01*
X59649Y-164739D01*
X58851Y-165199D01*
X58199Y-165851D01*
X57739Y-166649D01*
X57500Y-167539D01*
Y-168461D01*
X57739Y-169351D01*
X58199Y-170149D01*
X58851Y-170801D01*
X58961Y-170864D01*
Y-183984D01*
X58484Y-184461D01*
X36500D01*
X35720Y-184616D01*
X35058Y-185058D01*
X35058Y-185058D01*
X29558Y-190558D01*
X29116Y-191220D01*
X28961Y-192000D01*
Y-192636D01*
X28851Y-192699D01*
X28199Y-193351D01*
X27738Y-194149D01*
X27500Y-195039D01*
Y-195961D01*
X27738Y-196851D01*
X28199Y-197649D01*
X28851Y-198301D01*
X29649Y-198761D01*
X30539Y-199000D01*
X31461D01*
X32351Y-198761D01*
X33149Y-198301D01*
X33801Y-197649D01*
X34262Y-196851D01*
X34500Y-195961D01*
Y-195039D01*
X34262Y-194149D01*
X33801Y-193351D01*
X33167Y-192717D01*
X37345Y-188539D01*
X59328D01*
X60109Y-188384D01*
X60770Y-187942D01*
X62442Y-186270D01*
X62884Y-185609D01*
X63039Y-184828D01*
Y-173576D01*
X63501Y-173385D01*
X67961Y-177845D01*
Y-185636D01*
X67851Y-185699D01*
X67199Y-186351D01*
X66738Y-187149D01*
X66500Y-188039D01*
Y-188961D01*
X66738Y-189851D01*
X67199Y-190649D01*
X67851Y-191301D01*
X68649Y-191762D01*
X69539Y-192000D01*
X70461D01*
X71351Y-191762D01*
X72149Y-191301D01*
X72801Y-190649D01*
X73261Y-189851D01*
X73500Y-188961D01*
Y-188039D01*
X73261Y-187149D01*
X72801Y-186351D01*
X72149Y-185699D01*
X72039Y-185636D01*
Y-177000D01*
X71884Y-176220D01*
X71442Y-175558D01*
X64467Y-168583D01*
X64500Y-168461D01*
Y-167539D01*
X64262Y-166649D01*
X63801Y-165851D01*
X63149Y-165199D01*
X62351Y-164739D01*
X61461Y-164500D01*
D02*
G37*
G36*
X62500Y-192010D02*
Y-195000D01*
X65490D01*
X65262Y-194149D01*
X64801Y-193351D01*
X64149Y-192699D01*
X63351Y-192238D01*
X62500Y-192010D01*
D02*
G37*
G36*
X61500D02*
X60649Y-192238D01*
X59851Y-192699D01*
X59199Y-193351D01*
X58738Y-194149D01*
X58511Y-195000D01*
X61500D01*
Y-192010D01*
D02*
G37*
G36*
X80498Y-190717D02*
X79502D01*
X78540Y-190974D01*
X77677Y-191472D01*
X76973Y-192177D01*
X76474Y-193040D01*
X76217Y-194002D01*
Y-194998D01*
X76474Y-195960D01*
X76973Y-196823D01*
X77677Y-197528D01*
X78540Y-198026D01*
X79502Y-198284D01*
X80498D01*
X81460Y-198026D01*
X82323Y-197528D01*
X83027Y-196823D01*
X83526Y-195960D01*
X83784Y-194998D01*
Y-194002D01*
X83526Y-193040D01*
X83027Y-192177D01*
X82323Y-191472D01*
X81460Y-190974D01*
X80498Y-190717D01*
D02*
G37*
G36*
X20498D02*
X19502D01*
X18540Y-190974D01*
X17677Y-191472D01*
X16973Y-192177D01*
X16474Y-193040D01*
X16217Y-194002D01*
Y-194998D01*
X16474Y-195960D01*
X16973Y-196823D01*
X17677Y-197528D01*
X18540Y-198026D01*
X19502Y-198284D01*
X20498D01*
X21460Y-198026D01*
X22323Y-197528D01*
X23028Y-196823D01*
X23526Y-195960D01*
X23784Y-194998D01*
Y-194002D01*
X23526Y-193040D01*
X23028Y-192177D01*
X22323Y-191472D01*
X21460Y-190974D01*
X20498Y-190717D01*
D02*
G37*
G36*
X65490Y-196000D02*
X62500D01*
Y-198989D01*
X63351Y-198761D01*
X64149Y-198301D01*
X64801Y-197649D01*
X65262Y-196851D01*
X65490Y-196000D01*
D02*
G37*
G36*
X61500D02*
X58511D01*
X58738Y-196851D01*
X59199Y-197649D01*
X59851Y-198301D01*
X60649Y-198761D01*
X61500Y-198989D01*
Y-196000D01*
D02*
G37*
G36*
X80498Y-200716D02*
X79502D01*
X78540Y-200974D01*
X77677Y-201472D01*
X76973Y-202177D01*
X76474Y-203040D01*
X76217Y-204002D01*
Y-204998D01*
X76474Y-205960D01*
X76973Y-206823D01*
X77677Y-207527D01*
X78540Y-208026D01*
X79502Y-208283D01*
X80498D01*
X81460Y-208026D01*
X82323Y-207527D01*
X83027Y-206823D01*
X83526Y-205960D01*
X83784Y-204998D01*
Y-204002D01*
X83526Y-203040D01*
X83027Y-202177D01*
X82323Y-201472D01*
X81460Y-200974D01*
X80498Y-200716D01*
D02*
G37*
G36*
X20498D02*
X19502D01*
X18540Y-200974D01*
X17677Y-201472D01*
X16973Y-202177D01*
X16474Y-203040D01*
X16217Y-204002D01*
Y-204998D01*
X16474Y-205960D01*
X16973Y-206823D01*
X17677Y-207527D01*
X18540Y-208026D01*
X19502Y-208283D01*
X20498D01*
X21460Y-208026D01*
X22323Y-207527D01*
X23028Y-206823D01*
X23526Y-205960D01*
X23784Y-204998D01*
Y-204002D01*
X23526Y-203040D01*
X23028Y-202177D01*
X22323Y-201472D01*
X21460Y-200974D01*
X20498Y-200716D01*
D02*
G37*
G36*
X80498Y-210717D02*
X79502D01*
X78540Y-210974D01*
X77677Y-211473D01*
X76973Y-212177D01*
X76474Y-213040D01*
X76217Y-214002D01*
Y-214998D01*
X76474Y-215960D01*
X76973Y-216823D01*
X77677Y-217528D01*
X78540Y-218026D01*
X79502Y-218284D01*
X80498D01*
X81460Y-218026D01*
X82323Y-217528D01*
X83027Y-216823D01*
X83526Y-215960D01*
X83784Y-214998D01*
Y-214002D01*
X83526Y-213040D01*
X83027Y-212177D01*
X82323Y-211473D01*
X81460Y-210974D01*
X80498Y-210717D01*
D02*
G37*
G36*
X20498D02*
X19502D01*
X18540Y-210974D01*
X17677Y-211473D01*
X16973Y-212177D01*
X16474Y-213040D01*
X16217Y-214002D01*
Y-214998D01*
X16474Y-215960D01*
X16973Y-216823D01*
X17677Y-217528D01*
X18540Y-218026D01*
X19502Y-218284D01*
X20498D01*
X21460Y-218026D01*
X22323Y-217528D01*
X23028Y-216823D01*
X23526Y-215960D01*
X23784Y-214998D01*
Y-214002D01*
X23526Y-213040D01*
X23028Y-212177D01*
X22323Y-211473D01*
X21460Y-210974D01*
X20498Y-210717D01*
D02*
G37*
G36*
X90724Y-234500D02*
X90500D01*
Y-239500D01*
X95500D01*
Y-239276D01*
X95125Y-237877D01*
X94401Y-236623D01*
X93377Y-235599D01*
X92123Y-234875D01*
X90724Y-234500D01*
D02*
G37*
G36*
X89500D02*
X89276D01*
X87877Y-234875D01*
X86623Y-235599D01*
X85599Y-236623D01*
X84875Y-237877D01*
X84500Y-239276D01*
Y-239500D01*
X89500D01*
Y-234500D01*
D02*
G37*
G36*
X10724D02*
X10500D01*
Y-239500D01*
X15500D01*
Y-239276D01*
X15125Y-237877D01*
X14401Y-236623D01*
X13377Y-235599D01*
X12123Y-234875D01*
X10724Y-234500D01*
D02*
G37*
G36*
X9500D02*
X9276D01*
X7877Y-234875D01*
X6623Y-235599D01*
X5599Y-236623D01*
X4875Y-237877D01*
X4500Y-239276D01*
Y-239500D01*
X9500D01*
Y-234500D01*
D02*
G37*
G36*
X95500Y-240500D02*
X90500D01*
Y-245500D01*
X90724D01*
X92123Y-245125D01*
X93377Y-244401D01*
X94401Y-243377D01*
X95125Y-242123D01*
X95500Y-240724D01*
Y-240500D01*
D02*
G37*
G36*
X89500D02*
X84500D01*
Y-240724D01*
X84875Y-242123D01*
X85599Y-243377D01*
X86623Y-244401D01*
X87877Y-245125D01*
X89276Y-245500D01*
X89500D01*
Y-240500D01*
D02*
G37*
G36*
X15500D02*
X10500D01*
Y-245500D01*
X10724D01*
X12123Y-245125D01*
X13377Y-244401D01*
X14401Y-243377D01*
X15125Y-242123D01*
X15500Y-240724D01*
Y-240500D01*
D02*
G37*
G36*
X9500D02*
X4500D01*
Y-240724D01*
X4875Y-242123D01*
X5599Y-243377D01*
X6623Y-244401D01*
X7877Y-245125D01*
X9276Y-245500D01*
X9500D01*
Y-240500D01*
D02*
G37*
%LPD*%
D14*
X80000Y-74500D02*
D03*
Y-84500D02*
D03*
Y-94500D02*
D03*
Y-104500D02*
D03*
Y-114500D02*
D03*
Y-124500D02*
D03*
Y-134500D02*
D03*
Y-144500D02*
D03*
Y-154500D02*
D03*
Y-164500D02*
D03*
Y-174500D02*
D03*
Y-184500D02*
D03*
Y-194500D02*
D03*
Y-204500D02*
D03*
Y-214500D02*
D03*
X20000D02*
D03*
Y-204500D02*
D03*
Y-194500D02*
D03*
Y-184500D02*
D03*
Y-174500D02*
D03*
Y-164500D02*
D03*
Y-154500D02*
D03*
Y-144500D02*
D03*
Y-134500D02*
D03*
Y-124500D02*
D03*
Y-114500D02*
D03*
Y-104500D02*
D03*
Y-94500D02*
D03*
Y-84500D02*
D03*
D15*
Y-74500D02*
D03*
D19*
X27500Y-135000D02*
Y-120000D01*
X51500Y-96000D01*
Y-68000D01*
X31000Y-194500D02*
Y-192000D01*
X36500Y-186500D01*
X59328D01*
X61000Y-184828D02*
Y-168000D01*
X59328Y-186500D02*
X61000Y-184828D01*
X70000Y-188500D02*
Y-177000D01*
Y-189000D02*
Y-188500D01*
X61000Y-168000D02*
X70000Y-177000D01*
D20*
X90000Y-240000D02*
D03*
X10000D02*
D03*
Y-10000D02*
D03*
X90000D02*
D03*
D21*
X68500Y-18000D02*
D03*
X35000D02*
D03*
D22*
X68500Y-37685D02*
D03*
X35000D02*
D03*
D23*
X62000Y-195500D02*
D03*
X27500Y-135500D02*
D03*
X51500Y-68000D02*
D03*
X31000Y-195500D02*
D03*
X70000Y-188500D02*
D03*
X61000Y-168000D02*
D03*
M02*
