G04*
G04 #@! TF.GenerationSoftware,Altium Limited,Altium Designer,23.3.1 (30)*
G04*
G04 Layer_Color=32896*
%FSLAX25Y25*%
%MOIN*%
G70*
G04*
G04 #@! TF.SameCoordinates,A76074B7-2CB3-4B1A-B050-79AA5906FBBA*
G04*
G04*
G04 #@! TF.FilePolarity,Positive*
G04*
G01*
G75*
%ADD40C,0.00394*%
D40*
X75000Y-230968D02*
Y-227031D01*
X73032Y-229000D02*
X76968D01*
X45000Y-196263D02*
Y-192326D01*
X43031Y-194294D02*
X46968D01*
X59531Y-67000D02*
X63468D01*
X61500Y-68969D02*
Y-65032D01*
X69000Y-213968D02*
Y-210031D01*
X67032Y-212000D02*
X70969D01*
X69000Y-204968D02*
Y-201031D01*
X67032Y-203000D02*
X70969D01*
X33000Y-204968D02*
Y-201031D01*
X31032Y-203000D02*
X34969D01*
X33000Y-213968D02*
Y-210031D01*
X31032Y-212000D02*
X34969D01*
X60000Y-152968D02*
Y-149031D01*
X58032Y-151000D02*
X61969D01*
X40000Y-152968D02*
Y-149031D01*
X38032Y-151000D02*
X41969D01*
X50000Y-176468D02*
Y-172531D01*
X48032Y-174500D02*
X51969D01*
X63500Y-98468D02*
Y-94531D01*
X61532Y-96500D02*
X65469D01*
X36500Y-98468D02*
Y-94531D01*
X34532Y-96500D02*
X38469D01*
X61500Y-82969D02*
Y-79032D01*
X59531Y-81000D02*
X63468D01*
X35032Y-74345D02*
X38969D01*
X37000Y-76314D02*
Y-72377D01*
M02*
