G04*
G04 #@! TF.GenerationSoftware,Altium Limited,Altium Designer,23.3.1 (30)*
G04*
G04 Layer_Color=128*
%FSLAX25Y25*%
%MOIN*%
G70*
G04*
G04 #@! TF.SameCoordinates,A76074B7-2CB3-4B1A-B050-79AA5906FBBA*
G04*
G04*
G04 #@! TF.FilePolarity,Positive*
G04*
G01*
G75*
%ADD42C,0.00500*%
D42*
X86000Y-240000D02*
X94000D01*
X90000Y-244000D02*
Y-236000D01*
X6000Y-240000D02*
X14000D01*
X10000Y-244000D02*
Y-236000D01*
X6000Y-10000D02*
X14000D01*
X10000Y-14000D02*
Y-6000D01*
X86000Y-10000D02*
X94000D01*
X90000Y-14000D02*
Y-6000D01*
X78201Y-74500D02*
X81799D01*
X80000Y-76299D02*
Y-72701D01*
X78201Y-84500D02*
X81799D01*
X80000Y-86299D02*
Y-82701D01*
X78201Y-94500D02*
X81799D01*
X80000Y-96299D02*
Y-92701D01*
X78201Y-104500D02*
X81799D01*
X80000Y-106299D02*
Y-102701D01*
X78201Y-114500D02*
X81799D01*
X80000Y-116299D02*
Y-112701D01*
X78201Y-124500D02*
X81799D01*
X80000Y-126299D02*
Y-122701D01*
X78201Y-134500D02*
X81799D01*
X80000Y-136299D02*
Y-132701D01*
X78201Y-144500D02*
X81799D01*
X80000Y-146299D02*
Y-142701D01*
X78201Y-154500D02*
X81799D01*
X80000Y-156299D02*
Y-152701D01*
X78201Y-164500D02*
X81799D01*
X80000Y-166299D02*
Y-162701D01*
X78201Y-174500D02*
X81799D01*
X80000Y-176299D02*
Y-172701D01*
X78201Y-184500D02*
X81799D01*
X80000Y-186299D02*
Y-182701D01*
X78201Y-194500D02*
X81799D01*
X80000Y-196299D02*
Y-192701D01*
X78201Y-204500D02*
X81799D01*
X80000Y-206299D02*
Y-202701D01*
X78201Y-214500D02*
X81799D01*
X80000Y-216299D02*
Y-212701D01*
X18201Y-214500D02*
X21799D01*
X20000Y-216299D02*
Y-212701D01*
X18201Y-204500D02*
X21799D01*
X20000Y-206299D02*
Y-202701D01*
X18201Y-194500D02*
X21799D01*
X20000Y-196299D02*
Y-192701D01*
X18201Y-184500D02*
X21799D01*
X20000Y-186299D02*
Y-182701D01*
X18201Y-174500D02*
X21799D01*
X20000Y-176299D02*
Y-172701D01*
X18201Y-164500D02*
X21799D01*
X20000Y-166299D02*
Y-162701D01*
X18201Y-154500D02*
X21799D01*
X20000Y-156299D02*
Y-152701D01*
X18201Y-144500D02*
X21799D01*
X20000Y-146299D02*
Y-142701D01*
X18201Y-134500D02*
X21799D01*
X20000Y-136299D02*
Y-132701D01*
X18201Y-124500D02*
X21799D01*
X20000Y-126299D02*
Y-122701D01*
X18201Y-114500D02*
X21799D01*
X20000Y-116299D02*
Y-112701D01*
X18201Y-104500D02*
X21799D01*
X20000Y-106299D02*
Y-102701D01*
X18201Y-94500D02*
X21799D01*
X20000Y-96299D02*
Y-92701D01*
X18201Y-84500D02*
X21799D01*
X20000Y-86299D02*
Y-82701D01*
X18201Y-74500D02*
X21799D01*
X20000Y-76299D02*
Y-72701D01*
X65941Y-18000D02*
X71059D01*
X68500Y-20559D02*
Y-15441D01*
X65941Y-37685D02*
X71059D01*
X68500Y-40244D02*
Y-35126D01*
X32441Y-18000D02*
X37559D01*
X35000Y-20559D02*
Y-15441D01*
X32441Y-37685D02*
X37559D01*
X35000Y-40244D02*
Y-35126D01*
X60600Y-195500D02*
X63400D01*
X62000Y-196900D02*
Y-194100D01*
X26100Y-135500D02*
X28900D01*
X27500Y-136900D02*
Y-134100D01*
X50100Y-68000D02*
X52900D01*
X51500Y-69400D02*
Y-66600D01*
X29600Y-195500D02*
X32400D01*
X31000Y-196900D02*
Y-194100D01*
X68600Y-188500D02*
X71400D01*
X70000Y-189900D02*
Y-187100D01*
X59600Y-168000D02*
X62400D01*
X61000Y-169400D02*
Y-166600D01*
M02*
