G04*
G04 #@! TF.GenerationSoftware,Altium Limited,Altium Designer,23.3.1 (30)*
G04*
G04 Layer_Color=65535*
%FSLAX25Y25*%
%MOIN*%
G70*
G04*
G04 #@! TF.SameCoordinates,A76074B7-2CB3-4B1A-B050-79AA5906FBBA*
G04*
G04*
G04 #@! TF.FilePolarity,Positive*
G04*
G01*
G75*
%ADD10C,0.00984*%
%ADD11C,0.00787*%
%ADD12C,0.01000*%
D10*
X13130Y-74500D02*
X12392Y-74074D01*
Y-74926D01*
X13130Y-74500D01*
D11*
X15000Y-237000D02*
Y-59500D01*
Y-237000D02*
X85000D01*
Y-59500D01*
X15000D02*
X85000D01*
X59051Y-8157D02*
X81492D01*
X51965D02*
X55705D01*
X59051D02*
X59248Y-5794D01*
X55508D02*
X55705Y-8157D01*
X55508Y-5794D02*
X59248D01*
X51965Y-47527D02*
X72044D01*
X51965D02*
Y-8157D01*
X74799Y-47527D02*
X81492D01*
X74799D02*
X75095Y-49889D01*
X71748D02*
X72044Y-47527D01*
X71748Y-49889D02*
X75095D01*
X81492Y-47527D02*
Y-8157D01*
X25551D02*
X47992D01*
X18465D02*
X22205D01*
X25551D02*
X25748Y-5794D01*
X22008D02*
X22205Y-8157D01*
X22008Y-5794D02*
X25748D01*
X18465Y-47527D02*
X38544D01*
X18465D02*
Y-8157D01*
X41299Y-47527D02*
X47992D01*
X41299D02*
X41595Y-49889D01*
X38248D02*
X38544Y-47527D01*
X38248Y-49889D02*
X41595D01*
X47992Y-47527D02*
Y-8157D01*
D12*
X13001Y-36248D02*
Y-38247D01*
X16000D01*
Y-36248D01*
X14500Y-38247D02*
Y-37247D01*
Y-35248D02*
Y-33248D01*
X16000Y-32249D02*
X13001D01*
X14000Y-31249D01*
X13001Y-30249D01*
X16000D01*
X14000Y-28750D02*
Y-27750D01*
X14500Y-27250D01*
X16000D01*
Y-28750D01*
X15500Y-29250D01*
X15000Y-28750D01*
Y-27250D01*
X13500Y-25751D02*
X14000D01*
Y-26251D01*
Y-25251D01*
Y-25751D01*
X15500D01*
X16000Y-25251D01*
X14000Y-21752D02*
Y-23252D01*
X14500Y-23752D01*
X15500D01*
X16000Y-23252D01*
Y-21752D01*
X13001Y-20752D02*
X16000D01*
X14500D01*
X14000Y-20253D01*
Y-19253D01*
X14500Y-18753D01*
X16000D01*
X84000Y-21752D02*
X86999D01*
Y-23252D01*
X86500Y-23752D01*
X85500D01*
X85000Y-23252D01*
Y-21752D01*
X84000Y-25251D02*
Y-26251D01*
X84500Y-26751D01*
X85500D01*
X86000Y-26251D01*
Y-25251D01*
X85500Y-24751D01*
X84500D01*
X84000Y-25251D01*
X86000Y-27750D02*
X84500D01*
X84000Y-28250D01*
X84500Y-28750D01*
X84000Y-29250D01*
X84500Y-29750D01*
X86000D01*
X84000Y-32249D02*
Y-31249D01*
X84500Y-30749D01*
X85500D01*
X86000Y-31249D01*
Y-32249D01*
X85500Y-32749D01*
X85000D01*
Y-30749D01*
X86000Y-33748D02*
X84000D01*
X85000D01*
X85500Y-34248D01*
X86000Y-34748D01*
Y-35248D01*
X32756Y-55999D02*
Y-54000D01*
X33755Y-53000D01*
X34755Y-54000D01*
Y-55999D01*
Y-54500D01*
X32756D01*
X35755Y-54000D02*
Y-55999D01*
Y-55000D01*
X36255Y-54500D01*
X36754Y-54000D01*
X37254D01*
X40753Y-53000D02*
Y-55999D01*
X39254D01*
X38754Y-55500D01*
Y-54500D01*
X39254Y-54000D01*
X40753D01*
X41753D02*
Y-55500D01*
X42252Y-55999D01*
X43752D01*
Y-54000D01*
X44752Y-55999D02*
X45751D01*
X45252D01*
Y-54000D01*
X44752D01*
X47251Y-55999D02*
Y-54000D01*
X48750D01*
X49250Y-54500D01*
Y-55999D01*
X50750D02*
X51749D01*
X52249Y-55500D01*
Y-54500D01*
X51749Y-54000D01*
X50750D01*
X50250Y-54500D01*
Y-55500D01*
X50750Y-55999D01*
X56248D02*
Y-53000D01*
X58247Y-55999D01*
Y-53000D01*
X59747Y-54000D02*
X60747D01*
X61246Y-54500D01*
Y-55999D01*
X59747D01*
X59247Y-55500D01*
X59747Y-55000D01*
X61246D01*
X62246Y-55999D02*
Y-54000D01*
X63746D01*
X64245Y-54500D01*
Y-55999D01*
X65745D02*
X66745D01*
X67244Y-55500D01*
Y-54500D01*
X66745Y-54000D01*
X65745D01*
X65245Y-54500D01*
Y-55500D01*
X65745Y-55999D01*
M02*
