G04*
G04 #@! TF.GenerationSoftware,Altium Limited,Altium Designer,23.3.1 (30)*
G04*
G04 Layer_Color=8388736*
%FSLAX25Y25*%
%MOIN*%
G70*
G04*
G04 #@! TF.SameCoordinates,A76074B7-2CB3-4B1A-B050-79AA5906FBBA*
G04*
G04*
G04 #@! TF.FilePolarity,Negative*
G04*
G01*
G75*
%ADD13C,0.09800*%
%ADD14C,0.05567*%
%ADD15R,0.05567X0.05567*%
%ADD16C,0.08477*%
%ADD17R,0.08477X0.08477*%
%ADD18C,0.05800*%
D13*
X90000Y-240000D02*
D03*
X10000D02*
D03*
Y-10000D02*
D03*
X90000D02*
D03*
D14*
X80000Y-74500D02*
D03*
Y-84500D02*
D03*
Y-94500D02*
D03*
Y-104500D02*
D03*
Y-114500D02*
D03*
Y-124500D02*
D03*
Y-134500D02*
D03*
Y-144500D02*
D03*
Y-154500D02*
D03*
Y-164500D02*
D03*
Y-174500D02*
D03*
Y-184500D02*
D03*
Y-194500D02*
D03*
Y-204500D02*
D03*
Y-214500D02*
D03*
X20000D02*
D03*
Y-204500D02*
D03*
Y-194500D02*
D03*
Y-184500D02*
D03*
Y-174500D02*
D03*
Y-164500D02*
D03*
Y-154500D02*
D03*
Y-144500D02*
D03*
Y-134500D02*
D03*
Y-124500D02*
D03*
Y-114500D02*
D03*
Y-104500D02*
D03*
Y-94500D02*
D03*
Y-84500D02*
D03*
D15*
Y-74500D02*
D03*
D16*
X68500Y-18000D02*
D03*
X35000D02*
D03*
D17*
X68500Y-37685D02*
D03*
X35000D02*
D03*
D18*
X62000Y-195500D02*
D03*
X27500Y-135500D02*
D03*
X51500Y-68000D02*
D03*
X31000Y-195500D02*
D03*
X70000Y-188500D02*
D03*
X61000Y-168000D02*
D03*
M02*
