M48
;Layer_Color=9474304
;FILE_FORMAT=2:4
INCH,TZ
;TYPE=PLATED
T1F00S00C0.0280
T2F00S00C0.0360
T3F00S00C0.0512
T4F00S00C0.0800
%
T01
X6200Y-19550
X7000Y-18850
X3100Y-19550
X2750Y-13550
X5150Y-6800
X6100Y-16800
T02
X8000Y-21450
Y-20450
Y-19450
X2000
Y-20450
Y-21450
Y-18450
Y-17450
Y-16450
Y-15450
Y-14450
Y-13450
Y-12450
Y-11450
Y-10450
Y-9450
Y-8450
Y-7450
X8000
Y-8450
Y-9450
Y-10450
Y-11450
Y-12450
Y-13450
Y-14450
Y-15450
Y-16450
Y-17450
Y-18450
T03
X3500Y-3769
X6850
Y-1800
X3500
T04
X9000Y-24000
X1000
X9000Y-1000
X1000
M30
