G04*
G04 #@! TF.GenerationSoftware,Altium Limited,Altium Designer,23.3.1 (30)*
G04*
G04 Layer_Color=32768*
%FSLAX25Y25*%
%MOIN*%
G70*
G04*
G04 #@! TF.SameCoordinates,B46EFDDD-D530-4476-AF1B-D3F34534D4D2*
G04*
G04*
G04 #@! TF.FilePolarity,Positive*
G04*
G01*
G75*
%ADD11C,0.00787*%
%ADD40C,0.00394*%
D11*
X41653Y-196066D02*
Y-192523D01*
X48346D01*
Y-196066D02*
Y-192523D01*
X41653Y-196066D02*
X48346D01*
X55594Y-63654D02*
X67406D01*
Y-70346D02*
Y-63654D01*
X55594Y-70346D02*
X67406D01*
X55594D02*
Y-63654D01*
X65654Y-213772D02*
Y-210228D01*
X72346D01*
Y-213772D02*
Y-210228D01*
X65654Y-213772D02*
X72346D01*
X65654Y-204772D02*
Y-201228D01*
X72346D01*
Y-204772D02*
Y-201228D01*
X65654Y-204772D02*
X72346D01*
X36346D02*
Y-201228D01*
X29654Y-204772D02*
X36346D01*
X29654D02*
Y-201228D01*
X36346D01*
Y-213772D02*
Y-210228D01*
X29654Y-213772D02*
X36346D01*
X29654D02*
Y-210228D01*
X36346D01*
X53701Y-154150D02*
Y-147850D01*
X66299D01*
Y-154150D02*
Y-147850D01*
X53701Y-154150D02*
X66299D01*
X46299D02*
Y-147850D01*
X33701Y-154150D02*
X46299D01*
X33701D02*
Y-147850D01*
X46299D01*
X53346Y-176272D02*
Y-172728D01*
X46654Y-176272D02*
X53346D01*
X46654D02*
Y-172728D01*
X53346D01*
X70783Y-102012D02*
Y-90988D01*
X56217Y-102012D02*
X70783D01*
X56217D02*
Y-90988D01*
X70783D01*
X43783Y-102012D02*
Y-90988D01*
X29217Y-102012D02*
X43783D01*
X29217D02*
Y-90988D01*
X43783D01*
X57150Y-83854D02*
Y-78146D01*
X65850D01*
Y-83854D02*
Y-78146D01*
X57150Y-83854D02*
X65850D01*
X31291Y-76904D02*
X42709D01*
X31291D02*
Y-71786D01*
X42709D01*
Y-76904D02*
Y-71786D01*
D40*
X34252Y-109807D02*
X65748D01*
X34252Y-142878D02*
X65748D01*
X34252D02*
Y-109807D01*
X65748Y-142878D02*
Y-109807D01*
X60843Y-213406D02*
Y-201594D01*
X41157Y-213406D02*
X60843D01*
X41157Y-201594D02*
X60843D01*
X41157Y-213406D02*
Y-201594D01*
X53346Y-169272D02*
Y-165728D01*
X46654Y-169272D02*
Y-165728D01*
X53346D01*
X46654Y-169272D02*
X53346D01*
M02*
