G04*
G04 #@! TF.GenerationSoftware,Altium Limited,Altium Designer,23.3.1 (30)*
G04*
G04 Layer_Color=16711935*
%FSLAX25Y25*%
%MOIN*%
G70*
G04*
G04 #@! TF.SameCoordinates,A76074B7-2CB3-4B1A-B050-79AA5906FBBA*
G04*
G04*
G04 #@! TF.FilePolarity,Positive*
G04*
G01*
G75*
%ADD11C,0.00787*%
G36*
X57982Y-146785D02*
X57673D01*
Y-146432D01*
X57982D01*
Y-146785D01*
D02*
G37*
G36*
X55223Y-148951D02*
X54936D01*
Y-148722D01*
X54932Y-148725D01*
X54929Y-148733D01*
X54918Y-148747D01*
X54903Y-148765D01*
X54885Y-148784D01*
X54863Y-148805D01*
X54838Y-148831D01*
X54805Y-148856D01*
X54772Y-148882D01*
X54736Y-148907D01*
X54692Y-148929D01*
X54645Y-148947D01*
X54597Y-148966D01*
X54543Y-148980D01*
X54484Y-148987D01*
X54423Y-148991D01*
X54401D01*
X54386Y-148987D01*
X54343Y-148984D01*
X54292Y-148977D01*
X54230Y-148962D01*
X54160Y-148940D01*
X54091Y-148911D01*
X54022Y-148871D01*
X54019D01*
X54015Y-148864D01*
X53993Y-148849D01*
X53960Y-148820D01*
X53920Y-148784D01*
X53873Y-148736D01*
X53826Y-148678D01*
X53778Y-148613D01*
X53738Y-148536D01*
Y-148532D01*
X53735Y-148525D01*
X53731Y-148514D01*
X53724Y-148500D01*
X53716Y-148478D01*
X53706Y-148452D01*
X53698Y-148427D01*
X53691Y-148394D01*
X53673Y-148321D01*
X53655Y-148238D01*
X53644Y-148143D01*
X53640Y-148041D01*
Y-148037D01*
Y-148030D01*
Y-148016D01*
Y-147994D01*
X53644Y-147972D01*
Y-147943D01*
X53651Y-147877D01*
X53662Y-147801D01*
X53680Y-147717D01*
X53702Y-147630D01*
X53731Y-147546D01*
Y-147542D01*
X53735Y-147535D01*
X53742Y-147524D01*
X53749Y-147510D01*
X53771Y-147470D01*
X53800Y-147419D01*
X53837Y-147364D01*
X53884Y-147309D01*
X53939Y-147251D01*
X54004Y-147204D01*
X54008D01*
X54011Y-147200D01*
X54022Y-147193D01*
X54037Y-147186D01*
X54073Y-147168D01*
X54124Y-147142D01*
X54182Y-147120D01*
X54251Y-147102D01*
X54328Y-147087D01*
X54408Y-147084D01*
X54437D01*
X54466Y-147087D01*
X54506Y-147091D01*
X54554Y-147102D01*
X54605Y-147113D01*
X54656Y-147131D01*
X54703Y-147157D01*
X54710Y-147160D01*
X54725Y-147168D01*
X54747Y-147186D01*
X54776Y-147204D01*
X54812Y-147229D01*
X54845Y-147262D01*
X54881Y-147295D01*
X54914Y-147335D01*
Y-146432D01*
X55223D01*
Y-148951D01*
D02*
G37*
G36*
X68764Y-147087D02*
X68804Y-147091D01*
X68852Y-147098D01*
X68902Y-147109D01*
X68957Y-147124D01*
X69008Y-147146D01*
X69015Y-147149D01*
X69030Y-147157D01*
X69055Y-147168D01*
X69085Y-147186D01*
X69121Y-147207D01*
X69154Y-147237D01*
X69186Y-147266D01*
X69216Y-147302D01*
X69219Y-147306D01*
X69226Y-147320D01*
X69237Y-147339D01*
X69256Y-147364D01*
X69270Y-147400D01*
X69285Y-147437D01*
X69303Y-147480D01*
X69314Y-147528D01*
Y-147531D01*
X69318Y-147546D01*
X69321Y-147568D01*
X69325Y-147597D01*
Y-147641D01*
X69328Y-147692D01*
X69332Y-147754D01*
Y-147830D01*
Y-148951D01*
X69023D01*
Y-147845D01*
Y-147841D01*
Y-147837D01*
Y-147812D01*
Y-147779D01*
X69019Y-147739D01*
X69015Y-147692D01*
X69008Y-147644D01*
X68997Y-147601D01*
X68986Y-147561D01*
Y-147557D01*
X68979Y-147546D01*
X68968Y-147528D01*
X68957Y-147506D01*
X68939Y-147484D01*
X68917Y-147459D01*
X68888Y-147433D01*
X68855Y-147411D01*
X68852Y-147408D01*
X68841Y-147400D01*
X68819Y-147393D01*
X68793Y-147382D01*
X68764Y-147371D01*
X68728Y-147360D01*
X68684Y-147357D01*
X68640Y-147353D01*
X68622D01*
X68608Y-147357D01*
X68571Y-147360D01*
X68524Y-147368D01*
X68473Y-147386D01*
X68415Y-147408D01*
X68357Y-147437D01*
X68302Y-147480D01*
X68295Y-147488D01*
X68280Y-147506D01*
X68269Y-147521D01*
X68258Y-147539D01*
X68244Y-147561D01*
X68233Y-147586D01*
X68218Y-147615D01*
X68204Y-147652D01*
X68193Y-147692D01*
X68182Y-147735D01*
X68174Y-147783D01*
X68167Y-147834D01*
X68160Y-147896D01*
Y-147957D01*
Y-148951D01*
X67851D01*
Y-147124D01*
X68127D01*
Y-147386D01*
X68131Y-147382D01*
X68138Y-147371D01*
X68149Y-147357D01*
X68164Y-147339D01*
X68185Y-147317D01*
X68211Y-147291D01*
X68240Y-147262D01*
X68276Y-147233D01*
X68313Y-147207D01*
X68357Y-147178D01*
X68404Y-147153D01*
X68455Y-147131D01*
X68513Y-147113D01*
X68571Y-147098D01*
X68637Y-147087D01*
X68706Y-147084D01*
X68735D01*
X68764Y-147087D01*
D02*
G37*
G36*
X59369D02*
X59409Y-147091D01*
X59457Y-147098D01*
X59508Y-147109D01*
X59562Y-147124D01*
X59613Y-147146D01*
X59620Y-147149D01*
X59635Y-147157D01*
X59661Y-147168D01*
X59690Y-147186D01*
X59726Y-147207D01*
X59759Y-147237D01*
X59792Y-147266D01*
X59821Y-147302D01*
X59824Y-147306D01*
X59832Y-147320D01*
X59843Y-147339D01*
X59861Y-147364D01*
X59875Y-147400D01*
X59890Y-147437D01*
X59908Y-147480D01*
X59919Y-147528D01*
Y-147531D01*
X59923Y-147546D01*
X59926Y-147568D01*
X59930Y-147597D01*
Y-147641D01*
X59934Y-147692D01*
X59937Y-147754D01*
Y-147830D01*
Y-148951D01*
X59628D01*
Y-147845D01*
Y-147841D01*
Y-147837D01*
Y-147812D01*
Y-147779D01*
X59624Y-147739D01*
X59620Y-147692D01*
X59613Y-147644D01*
X59602Y-147601D01*
X59591Y-147561D01*
Y-147557D01*
X59584Y-147546D01*
X59573Y-147528D01*
X59562Y-147506D01*
X59544Y-147484D01*
X59522Y-147459D01*
X59493Y-147433D01*
X59460Y-147411D01*
X59457Y-147408D01*
X59446Y-147400D01*
X59424Y-147393D01*
X59399Y-147382D01*
X59369Y-147371D01*
X59333Y-147360D01*
X59289Y-147357D01*
X59246Y-147353D01*
X59227D01*
X59213Y-147357D01*
X59176Y-147360D01*
X59129Y-147368D01*
X59078Y-147386D01*
X59020Y-147408D01*
X58962Y-147437D01*
X58907Y-147480D01*
X58900Y-147488D01*
X58885Y-147506D01*
X58874Y-147521D01*
X58863Y-147539D01*
X58849Y-147561D01*
X58838Y-147586D01*
X58823Y-147615D01*
X58809Y-147652D01*
X58798Y-147692D01*
X58787Y-147735D01*
X58780Y-147783D01*
X58772Y-147834D01*
X58765Y-147896D01*
Y-147957D01*
Y-148951D01*
X58456D01*
Y-147124D01*
X58732D01*
Y-147386D01*
X58736Y-147382D01*
X58743Y-147371D01*
X58754Y-147357D01*
X58769Y-147339D01*
X58791Y-147317D01*
X58816Y-147291D01*
X58845Y-147262D01*
X58882Y-147233D01*
X58918Y-147207D01*
X58962Y-147178D01*
X59009Y-147153D01*
X59060Y-147131D01*
X59118Y-147113D01*
X59176Y-147098D01*
X59242Y-147087D01*
X59311Y-147084D01*
X59340D01*
X59369Y-147087D01*
D02*
G37*
G36*
X53312D02*
X53352Y-147095D01*
X53400Y-147109D01*
X53451Y-147127D01*
X53509Y-147153D01*
X53571Y-147186D01*
X53458Y-147470D01*
X53454Y-147466D01*
X53440Y-147459D01*
X53418Y-147448D01*
X53389Y-147437D01*
X53356Y-147426D01*
X53316Y-147415D01*
X53276Y-147408D01*
X53236Y-147404D01*
X53218D01*
X53200Y-147408D01*
X53174Y-147411D01*
X53149Y-147419D01*
X53116Y-147430D01*
X53083Y-147444D01*
X53054Y-147466D01*
X53050Y-147470D01*
X53039Y-147477D01*
X53029Y-147491D01*
X53010Y-147510D01*
X52992Y-147535D01*
X52974Y-147564D01*
X52956Y-147597D01*
X52941Y-147637D01*
X52938Y-147644D01*
X52934Y-147666D01*
X52927Y-147699D01*
X52916Y-147743D01*
X52905Y-147797D01*
X52897Y-147859D01*
X52894Y-147925D01*
X52890Y-147997D01*
Y-148951D01*
X52581D01*
Y-147124D01*
X52861D01*
Y-147400D01*
X52865Y-147397D01*
X52879Y-147371D01*
X52897Y-147339D01*
X52927Y-147299D01*
X52956Y-147258D01*
X52988Y-147215D01*
X53021Y-147178D01*
X53054Y-147149D01*
X53058Y-147146D01*
X53069Y-147138D01*
X53090Y-147127D01*
X53112Y-147116D01*
X53141Y-147106D01*
X53178Y-147095D01*
X53214Y-147087D01*
X53254Y-147084D01*
X53280D01*
X53312Y-147087D01*
D02*
G37*
G36*
X65372Y-148951D02*
X65026D01*
X63708Y-146975D01*
Y-148951D01*
X63388D01*
Y-146432D01*
X63730D01*
X65051Y-148412D01*
Y-146432D01*
X65372D01*
Y-148951D01*
D02*
G37*
G36*
X57189D02*
X56912D01*
Y-148685D01*
X56909Y-148689D01*
X56901Y-148700D01*
X56890Y-148714D01*
X56872Y-148733D01*
X56850Y-148755D01*
X56825Y-148784D01*
X56796Y-148809D01*
X56760Y-148838D01*
X56719Y-148867D01*
X56676Y-148893D01*
X56628Y-148918D01*
X56577Y-148944D01*
X56519Y-148962D01*
X56461Y-148977D01*
X56396Y-148987D01*
X56330Y-148991D01*
X56305D01*
X56272Y-148987D01*
X56232Y-148984D01*
X56184Y-148977D01*
X56133Y-148966D01*
X56082Y-148951D01*
X56028Y-148929D01*
X56021Y-148926D01*
X56006Y-148918D01*
X55980Y-148904D01*
X55951Y-148886D01*
X55915Y-148864D01*
X55882Y-148838D01*
X55849Y-148809D01*
X55820Y-148776D01*
X55817Y-148773D01*
X55809Y-148758D01*
X55799Y-148740D01*
X55784Y-148711D01*
X55766Y-148678D01*
X55751Y-148638D01*
X55737Y-148594D01*
X55726Y-148547D01*
Y-148543D01*
X55722Y-148529D01*
X55718Y-148507D01*
Y-148478D01*
X55715Y-148434D01*
X55711Y-148387D01*
X55708Y-148325D01*
Y-148256D01*
Y-147124D01*
X56017D01*
Y-148139D01*
Y-148143D01*
Y-148150D01*
Y-148161D01*
Y-148179D01*
Y-148219D01*
X56021Y-148270D01*
Y-148325D01*
X56024Y-148380D01*
X56028Y-148427D01*
X56035Y-148467D01*
Y-148471D01*
X56042Y-148485D01*
X56050Y-148507D01*
X56061Y-148536D01*
X56079Y-148565D01*
X56101Y-148598D01*
X56126Y-148627D01*
X56159Y-148656D01*
X56163Y-148660D01*
X56177Y-148667D01*
X56195Y-148678D01*
X56224Y-148689D01*
X56257Y-148704D01*
X56297Y-148714D01*
X56341Y-148722D01*
X56392Y-148725D01*
X56417D01*
X56443Y-148722D01*
X56476Y-148718D01*
X56516Y-148707D01*
X56559Y-148696D01*
X56607Y-148678D01*
X56654Y-148656D01*
X56661Y-148653D01*
X56676Y-148642D01*
X56698Y-148627D01*
X56723Y-148605D01*
X56752Y-148576D01*
X56781Y-148543D01*
X56807Y-148507D01*
X56829Y-148463D01*
X56832Y-148456D01*
X56836Y-148442D01*
X56843Y-148412D01*
X56854Y-148372D01*
X56865Y-148321D01*
X56872Y-148259D01*
X56876Y-148187D01*
X56880Y-148103D01*
Y-147124D01*
X57189D01*
Y-148951D01*
D02*
G37*
G36*
X66744Y-147087D02*
X66799Y-147091D01*
X66861Y-147098D01*
X66922Y-147109D01*
X66984Y-147124D01*
X67042Y-147142D01*
X67050Y-147146D01*
X67068Y-147153D01*
X67093Y-147164D01*
X67126Y-147178D01*
X67163Y-147200D01*
X67199Y-147222D01*
X67232Y-147251D01*
X67261Y-147280D01*
X67264Y-147284D01*
X67272Y-147295D01*
X67283Y-147313D01*
X67297Y-147335D01*
X67316Y-147368D01*
X67330Y-147400D01*
X67345Y-147441D01*
X67356Y-147488D01*
Y-147491D01*
X67359Y-147502D01*
X67363Y-147524D01*
X67366Y-147553D01*
Y-147593D01*
X67370Y-147641D01*
X67374Y-147703D01*
Y-147772D01*
Y-148187D01*
Y-148190D01*
Y-148205D01*
Y-148227D01*
Y-148256D01*
Y-148289D01*
Y-148329D01*
X67377Y-148416D01*
Y-148507D01*
X67381Y-148598D01*
X67385Y-148638D01*
Y-148674D01*
X67388Y-148707D01*
X67392Y-148733D01*
Y-148736D01*
X67396Y-148751D01*
X67399Y-148773D01*
X67410Y-148802D01*
X67417Y-148835D01*
X67432Y-148871D01*
X67450Y-148911D01*
X67468Y-148951D01*
X67144D01*
X67141Y-148947D01*
X67137Y-148933D01*
X67130Y-148915D01*
X67119Y-148886D01*
X67108Y-148853D01*
X67101Y-148813D01*
X67093Y-148769D01*
X67086Y-148722D01*
X67083D01*
X67079Y-148729D01*
X67057Y-148747D01*
X67024Y-148773D01*
X66981Y-148805D01*
X66926Y-148838D01*
X66871Y-148875D01*
X66813Y-148907D01*
X66751Y-148933D01*
X66744Y-148936D01*
X66722Y-148940D01*
X66689Y-148951D01*
X66649Y-148962D01*
X66598Y-148973D01*
X66540Y-148980D01*
X66475Y-148987D01*
X66409Y-148991D01*
X66380D01*
X66358Y-148987D01*
X66333D01*
X66304Y-148984D01*
X66238Y-148973D01*
X66165Y-148955D01*
X66085Y-148929D01*
X66012Y-148893D01*
X65947Y-148846D01*
X65940Y-148838D01*
X65921Y-148820D01*
X65896Y-148787D01*
X65867Y-148744D01*
X65838Y-148689D01*
X65812Y-148627D01*
X65794Y-148551D01*
X65790Y-148514D01*
X65787Y-148471D01*
Y-148463D01*
Y-148449D01*
X65790Y-148423D01*
X65794Y-148390D01*
X65801Y-148351D01*
X65812Y-148310D01*
X65827Y-148267D01*
X65845Y-148227D01*
X65849Y-148223D01*
X65856Y-148208D01*
X65870Y-148187D01*
X65889Y-148161D01*
X65910Y-148132D01*
X65940Y-148103D01*
X65969Y-148074D01*
X66005Y-148048D01*
X66009Y-148045D01*
X66023Y-148037D01*
X66041Y-148023D01*
X66071Y-148008D01*
X66103Y-147994D01*
X66143Y-147976D01*
X66183Y-147961D01*
X66231Y-147946D01*
X66234D01*
X66249Y-147943D01*
X66271Y-147935D01*
X66300Y-147932D01*
X66336Y-147925D01*
X66384Y-147917D01*
X66438Y-147906D01*
X66504Y-147899D01*
X66507D01*
X66522Y-147896D01*
X66540D01*
X66566Y-147892D01*
X66595Y-147888D01*
X66631Y-147881D01*
X66671Y-147877D01*
X66715Y-147870D01*
X66802Y-147852D01*
X66897Y-147834D01*
X66981Y-147812D01*
X67021Y-147801D01*
X67057Y-147790D01*
Y-147786D01*
Y-147779D01*
X67061Y-147757D01*
Y-147732D01*
Y-147717D01*
Y-147710D01*
Y-147706D01*
Y-147703D01*
Y-147681D01*
X67057Y-147644D01*
X67050Y-147604D01*
X67039Y-147561D01*
X67021Y-147517D01*
X66999Y-147477D01*
X66970Y-147444D01*
X66966Y-147441D01*
X66948Y-147426D01*
X66919Y-147411D01*
X66882Y-147389D01*
X66831Y-147371D01*
X66773Y-147353D01*
X66700Y-147342D01*
X66617Y-147339D01*
X66580D01*
X66544Y-147342D01*
X66493Y-147350D01*
X66442Y-147357D01*
X66387Y-147371D01*
X66336Y-147389D01*
X66293Y-147415D01*
X66289Y-147419D01*
X66274Y-147430D01*
X66256Y-147448D01*
X66234Y-147477D01*
X66213Y-147513D01*
X66187Y-147561D01*
X66165Y-147619D01*
X66143Y-147684D01*
X65841Y-147644D01*
Y-147641D01*
X65845Y-147637D01*
Y-147626D01*
X65849Y-147612D01*
X65860Y-147579D01*
X65874Y-147531D01*
X65892Y-147484D01*
X65914Y-147433D01*
X65943Y-147382D01*
X65976Y-147335D01*
X65980Y-147331D01*
X65994Y-147317D01*
X66016Y-147295D01*
X66045Y-147266D01*
X66085Y-147237D01*
X66132Y-147207D01*
X66187Y-147175D01*
X66249Y-147149D01*
X66253D01*
X66256Y-147146D01*
X66267Y-147142D01*
X66282Y-147138D01*
X66318Y-147127D01*
X66369Y-147116D01*
X66427Y-147106D01*
X66500Y-147095D01*
X66577Y-147087D01*
X66664Y-147084D01*
X66704D01*
X66744Y-147087D01*
D02*
G37*
G36*
X57982Y-148951D02*
X57673D01*
Y-147124D01*
X57982D01*
Y-148951D01*
D02*
G37*
G36*
X52355D02*
X51977D01*
X51682Y-148187D01*
X50626D01*
X50353Y-148951D01*
X50000D01*
X50961Y-146432D01*
X51325D01*
X52355Y-148951D01*
D02*
G37*
G36*
X70610Y-147087D02*
X70642Y-147091D01*
X70679Y-147098D01*
X70719Y-147106D01*
X70766Y-147113D01*
X70864Y-147146D01*
X70915Y-147164D01*
X70966Y-147189D01*
X71017Y-147215D01*
X71068Y-147251D01*
X71116Y-147288D01*
X71163Y-147331D01*
X71167Y-147335D01*
X71174Y-147342D01*
X71185Y-147357D01*
X71199Y-147375D01*
X71218Y-147400D01*
X71239Y-147433D01*
X71261Y-147470D01*
X71283Y-147510D01*
X71305Y-147553D01*
X71327Y-147608D01*
X71349Y-147662D01*
X71367Y-147724D01*
X71381Y-147790D01*
X71392Y-147859D01*
X71400Y-147932D01*
X71403Y-148012D01*
Y-148016D01*
Y-148027D01*
Y-148045D01*
Y-148070D01*
X71400Y-148099D01*
X71396Y-148136D01*
Y-148172D01*
X71389Y-148212D01*
X71378Y-148303D01*
X71356Y-148394D01*
X71330Y-148485D01*
X71294Y-148569D01*
Y-148573D01*
X71290Y-148576D01*
X71283Y-148587D01*
X71276Y-148602D01*
X71250Y-148638D01*
X71218Y-148682D01*
X71174Y-148733D01*
X71119Y-148784D01*
X71057Y-148835D01*
X70985Y-148882D01*
X70981D01*
X70977Y-148886D01*
X70966Y-148893D01*
X70948Y-148900D01*
X70930Y-148907D01*
X70908Y-148915D01*
X70854Y-148936D01*
X70792Y-148955D01*
X70715Y-148973D01*
X70635Y-148987D01*
X70548Y-148991D01*
X70511D01*
X70482Y-148987D01*
X70450Y-148984D01*
X70413Y-148977D01*
X70369Y-148969D01*
X70326Y-148962D01*
X70227Y-148933D01*
X70173Y-148911D01*
X70122Y-148889D01*
X70071Y-148860D01*
X70020Y-148827D01*
X69973Y-148791D01*
X69925Y-148747D01*
X69922Y-148744D01*
X69914Y-148736D01*
X69903Y-148722D01*
X69889Y-148700D01*
X69871Y-148674D01*
X69853Y-148645D01*
X69831Y-148609D01*
X69809Y-148565D01*
X69787Y-148518D01*
X69765Y-148463D01*
X69747Y-148405D01*
X69729Y-148343D01*
X69714Y-148274D01*
X69703Y-148201D01*
X69696Y-148121D01*
X69692Y-148037D01*
Y-148030D01*
Y-148016D01*
X69696Y-147990D01*
Y-147954D01*
X69700Y-147914D01*
X69707Y-147863D01*
X69714Y-147812D01*
X69729Y-147754D01*
X69743Y-147695D01*
X69762Y-147633D01*
X69783Y-147568D01*
X69813Y-147506D01*
X69842Y-147448D01*
X69882Y-147389D01*
X69922Y-147335D01*
X69973Y-147288D01*
X69976Y-147284D01*
X69984Y-147280D01*
X69998Y-147269D01*
X70016Y-147255D01*
X70038Y-147240D01*
X70067Y-147222D01*
X70096Y-147204D01*
X70133Y-147186D01*
X70173Y-147168D01*
X70217Y-147149D01*
X70315Y-147116D01*
X70428Y-147091D01*
X70486Y-147087D01*
X70548Y-147084D01*
X70584D01*
X70610Y-147087D01*
D02*
G37*
G36*
X61215D02*
X61248Y-147091D01*
X61284Y-147098D01*
X61324Y-147106D01*
X61371Y-147113D01*
X61470Y-147146D01*
X61521Y-147164D01*
X61572Y-147189D01*
X61623Y-147215D01*
X61673Y-147251D01*
X61721Y-147288D01*
X61768Y-147331D01*
X61772Y-147335D01*
X61779Y-147342D01*
X61790Y-147357D01*
X61804Y-147375D01*
X61823Y-147400D01*
X61845Y-147433D01*
X61866Y-147470D01*
X61888Y-147510D01*
X61910Y-147553D01*
X61932Y-147608D01*
X61954Y-147662D01*
X61972Y-147724D01*
X61987Y-147790D01*
X61997Y-147859D01*
X62005Y-147932D01*
X62008Y-148012D01*
Y-148016D01*
Y-148027D01*
Y-148045D01*
Y-148070D01*
X62005Y-148099D01*
X62001Y-148136D01*
Y-148172D01*
X61994Y-148212D01*
X61983Y-148303D01*
X61961Y-148394D01*
X61936Y-148485D01*
X61899Y-148569D01*
Y-148573D01*
X61896Y-148576D01*
X61888Y-148587D01*
X61881Y-148602D01*
X61856Y-148638D01*
X61823Y-148682D01*
X61779Y-148733D01*
X61724Y-148784D01*
X61663Y-148835D01*
X61590Y-148882D01*
X61586D01*
X61582Y-148886D01*
X61572Y-148893D01*
X61553Y-148900D01*
X61535Y-148907D01*
X61513Y-148915D01*
X61459Y-148936D01*
X61397Y-148955D01*
X61320Y-148973D01*
X61240Y-148987D01*
X61153Y-148991D01*
X61117D01*
X61087Y-148987D01*
X61055Y-148984D01*
X61018Y-148977D01*
X60975Y-148969D01*
X60931Y-148962D01*
X60833Y-148933D01*
X60778Y-148911D01*
X60727Y-148889D01*
X60676Y-148860D01*
X60625Y-148827D01*
X60578Y-148791D01*
X60531Y-148747D01*
X60527Y-148744D01*
X60520Y-148736D01*
X60509Y-148722D01*
X60494Y-148700D01*
X60476Y-148674D01*
X60458Y-148645D01*
X60436Y-148609D01*
X60414Y-148565D01*
X60392Y-148518D01*
X60370Y-148463D01*
X60352Y-148405D01*
X60334Y-148343D01*
X60319Y-148274D01*
X60308Y-148201D01*
X60301Y-148121D01*
X60298Y-148037D01*
Y-148030D01*
Y-148016D01*
X60301Y-147990D01*
Y-147954D01*
X60305Y-147914D01*
X60312Y-147863D01*
X60319Y-147812D01*
X60334Y-147754D01*
X60348Y-147695D01*
X60367Y-147633D01*
X60389Y-147568D01*
X60418Y-147506D01*
X60447Y-147448D01*
X60487Y-147389D01*
X60527Y-147335D01*
X60578Y-147288D01*
X60581Y-147284D01*
X60589Y-147280D01*
X60603Y-147269D01*
X60622Y-147255D01*
X60643Y-147240D01*
X60672Y-147222D01*
X60702Y-147204D01*
X60738Y-147186D01*
X60778Y-147168D01*
X60822Y-147149D01*
X60920Y-147116D01*
X61033Y-147091D01*
X61091Y-147087D01*
X61153Y-147084D01*
X61189D01*
X61215Y-147087D01*
D02*
G37*
%LPC*%
G36*
X54441Y-147339D02*
X54423D01*
X54408Y-147342D01*
X54368Y-147346D01*
X54321Y-147360D01*
X54266Y-147379D01*
X54208Y-147411D01*
X54150Y-147451D01*
X54120Y-147480D01*
X54095Y-147510D01*
Y-147513D01*
X54088Y-147517D01*
X54084Y-147528D01*
X54073Y-147542D01*
X54062Y-147561D01*
X54051Y-147582D01*
X54040Y-147608D01*
X54026Y-147637D01*
X54011Y-147673D01*
X54000Y-147713D01*
X53989Y-147757D01*
X53979Y-147804D01*
X53971Y-147855D01*
X53964Y-147914D01*
X53957Y-147976D01*
Y-148041D01*
Y-148045D01*
Y-148056D01*
Y-148074D01*
X53960Y-148099D01*
Y-148128D01*
X53964Y-148161D01*
X53975Y-148238D01*
X53993Y-148321D01*
X54019Y-148409D01*
X54055Y-148492D01*
X54077Y-148529D01*
X54102Y-148565D01*
X54106D01*
X54110Y-148573D01*
X54128Y-148591D01*
X54160Y-148620D01*
X54201Y-148649D01*
X54251Y-148682D01*
X54313Y-148711D01*
X54379Y-148729D01*
X54415Y-148733D01*
X54452Y-148736D01*
X54470D01*
X54484Y-148733D01*
X54524Y-148729D01*
X54572Y-148714D01*
X54626Y-148696D01*
X54685Y-148667D01*
X54743Y-148627D01*
X54772Y-148602D01*
X54798Y-148573D01*
Y-148569D01*
X54805Y-148565D01*
X54812Y-148554D01*
X54819Y-148540D01*
X54830Y-148522D01*
X54845Y-148503D01*
X54856Y-148474D01*
X54870Y-148445D01*
X54885Y-148412D01*
X54896Y-148376D01*
X54910Y-148332D01*
X54921Y-148289D01*
X54929Y-148238D01*
X54936Y-148187D01*
X54943Y-148128D01*
Y-148067D01*
Y-148063D01*
Y-148048D01*
Y-148030D01*
X54940Y-148005D01*
Y-147976D01*
X54936Y-147939D01*
X54932Y-147899D01*
X54925Y-147855D01*
X54907Y-147768D01*
X54881Y-147677D01*
X54845Y-147590D01*
X54823Y-147553D01*
X54798Y-147517D01*
Y-147513D01*
X54790Y-147510D01*
X54772Y-147488D01*
X54739Y-147459D01*
X54699Y-147426D01*
X54648Y-147393D01*
X54586Y-147368D01*
X54517Y-147346D01*
X54481Y-147342D01*
X54441Y-147339D01*
D02*
G37*
G36*
X67061Y-148034D02*
X67057D01*
X67053Y-148037D01*
X67042Y-148041D01*
X67028Y-148045D01*
X67010Y-148052D01*
X66988Y-148059D01*
X66962Y-148067D01*
X66933Y-148074D01*
X66900Y-148085D01*
X66861Y-148092D01*
X66820Y-148103D01*
X66773Y-148114D01*
X66722Y-148125D01*
X66671Y-148136D01*
X66613Y-148143D01*
X66551Y-148154D01*
X66544D01*
X66522Y-148158D01*
X66486Y-148165D01*
X66445Y-148172D01*
X66402Y-148179D01*
X66358Y-148190D01*
X66318Y-148201D01*
X66282Y-148216D01*
X66278D01*
X66267Y-148223D01*
X66253Y-148230D01*
X66238Y-148241D01*
X66194Y-148270D01*
X66158Y-148314D01*
Y-148318D01*
X66151Y-148325D01*
X66147Y-148340D01*
X66140Y-148358D01*
X66132Y-148380D01*
X66125Y-148401D01*
X66122Y-148431D01*
X66118Y-148460D01*
Y-148463D01*
Y-148482D01*
X66122Y-148503D01*
X66129Y-148532D01*
X66140Y-148565D01*
X66158Y-148598D01*
X66180Y-148634D01*
X66209Y-148667D01*
X66213Y-148671D01*
X66227Y-148678D01*
X66249Y-148693D01*
X66278Y-148707D01*
X66318Y-148722D01*
X66365Y-148736D01*
X66420Y-148744D01*
X66486Y-148747D01*
X66515D01*
X66551Y-148744D01*
X66591Y-148736D01*
X66642Y-148729D01*
X66693Y-148714D01*
X66748Y-148696D01*
X66802Y-148671D01*
X66809Y-148667D01*
X66824Y-148656D01*
X66850Y-148638D01*
X66879Y-148613D01*
X66911Y-148583D01*
X66948Y-148547D01*
X66977Y-148503D01*
X67006Y-148456D01*
X67010Y-148452D01*
X67013Y-148438D01*
X67021Y-148412D01*
X67032Y-148380D01*
X67042Y-148336D01*
X67050Y-148285D01*
X67053Y-148223D01*
X67057Y-148150D01*
X67061Y-148034D01*
D02*
G37*
G36*
X51136Y-146694D02*
Y-146698D01*
X51132Y-146705D01*
Y-146720D01*
X51125Y-146734D01*
X51121Y-146760D01*
X51114Y-146785D01*
X51099Y-146847D01*
X51081Y-146920D01*
X51056Y-147000D01*
X51030Y-147087D01*
X50997Y-147178D01*
X50724Y-147914D01*
X51576D01*
X51314Y-147222D01*
Y-147218D01*
X51310Y-147207D01*
X51303Y-147189D01*
X51296Y-147168D01*
X51285Y-147142D01*
X51274Y-147109D01*
X51263Y-147073D01*
X51249Y-147036D01*
X51219Y-146953D01*
X51190Y-146865D01*
X51161Y-146778D01*
X51136Y-146694D01*
D02*
G37*
G36*
X70548Y-147339D02*
X70526D01*
X70508Y-147342D01*
X70468Y-147346D01*
X70413Y-147360D01*
X70351Y-147382D01*
X70286Y-147411D01*
X70224Y-147455D01*
X70191Y-147484D01*
X70162Y-147513D01*
Y-147517D01*
X70155Y-147521D01*
X70147Y-147531D01*
X70136Y-147546D01*
X70126Y-147564D01*
X70115Y-147586D01*
X70100Y-147615D01*
X70086Y-147644D01*
X70071Y-147681D01*
X70056Y-147717D01*
X70046Y-147761D01*
X70035Y-147808D01*
X70024Y-147859D01*
X70016Y-147914D01*
X70013Y-147976D01*
X70009Y-148037D01*
Y-148041D01*
Y-148052D01*
Y-148070D01*
X70013Y-148096D01*
Y-148125D01*
X70016Y-148158D01*
X70027Y-148234D01*
X70046Y-148321D01*
X70075Y-148409D01*
X70111Y-148492D01*
X70136Y-148529D01*
X70162Y-148565D01*
X70166D01*
X70169Y-148573D01*
X70191Y-148591D01*
X70224Y-148620D01*
X70267Y-148649D01*
X70322Y-148682D01*
X70388Y-148711D01*
X70464Y-148729D01*
X70504Y-148733D01*
X70548Y-148736D01*
X70570D01*
X70588Y-148733D01*
X70628Y-148725D01*
X70683Y-148714D01*
X70741Y-148693D01*
X70806Y-148663D01*
X70868Y-148620D01*
X70901Y-148591D01*
X70930Y-148562D01*
X70934Y-148558D01*
X70937Y-148554D01*
X70945Y-148543D01*
X70955Y-148529D01*
X70966Y-148511D01*
X70981Y-148489D01*
X70995Y-148460D01*
X71010Y-148431D01*
X71025Y-148394D01*
X71036Y-148354D01*
X71050Y-148310D01*
X71061Y-148263D01*
X71072Y-148208D01*
X71079Y-148154D01*
X71087Y-148092D01*
Y-148027D01*
Y-148023D01*
Y-148012D01*
Y-147994D01*
X71083Y-147972D01*
Y-147943D01*
X71079Y-147910D01*
X71068Y-147834D01*
X71050Y-147754D01*
X71021Y-147666D01*
X70981Y-147586D01*
X70959Y-147546D01*
X70930Y-147513D01*
Y-147510D01*
X70923Y-147506D01*
X70901Y-147484D01*
X70868Y-147459D01*
X70824Y-147426D01*
X70770Y-147393D01*
X70704Y-147364D01*
X70631Y-147346D01*
X70591Y-147342D01*
X70548Y-147339D01*
D02*
G37*
G36*
X61153D02*
X61131D01*
X61113Y-147342D01*
X61073Y-147346D01*
X61018Y-147360D01*
X60956Y-147382D01*
X60891Y-147411D01*
X60829Y-147455D01*
X60796Y-147484D01*
X60767Y-147513D01*
Y-147517D01*
X60760Y-147521D01*
X60753Y-147531D01*
X60742Y-147546D01*
X60731Y-147564D01*
X60720Y-147586D01*
X60705Y-147615D01*
X60691Y-147644D01*
X60676Y-147681D01*
X60662Y-147717D01*
X60651Y-147761D01*
X60640Y-147808D01*
X60629Y-147859D01*
X60622Y-147914D01*
X60618Y-147976D01*
X60614Y-148037D01*
Y-148041D01*
Y-148052D01*
Y-148070D01*
X60618Y-148096D01*
Y-148125D01*
X60622Y-148158D01*
X60632Y-148234D01*
X60651Y-148321D01*
X60680Y-148409D01*
X60716Y-148492D01*
X60742Y-148529D01*
X60767Y-148565D01*
X60771D01*
X60774Y-148573D01*
X60796Y-148591D01*
X60829Y-148620D01*
X60873Y-148649D01*
X60927Y-148682D01*
X60993Y-148711D01*
X61069Y-148729D01*
X61109Y-148733D01*
X61153Y-148736D01*
X61175D01*
X61193Y-148733D01*
X61233Y-148725D01*
X61288Y-148714D01*
X61346Y-148693D01*
X61411Y-148663D01*
X61473Y-148620D01*
X61506Y-148591D01*
X61535Y-148562D01*
X61539Y-148558D01*
X61542Y-148554D01*
X61550Y-148543D01*
X61561Y-148529D01*
X61572Y-148511D01*
X61586Y-148489D01*
X61601Y-148460D01*
X61615Y-148431D01*
X61630Y-148394D01*
X61641Y-148354D01*
X61655Y-148310D01*
X61666Y-148263D01*
X61677Y-148208D01*
X61684Y-148154D01*
X61692Y-148092D01*
Y-148027D01*
Y-148023D01*
Y-148012D01*
Y-147994D01*
X61688Y-147972D01*
Y-147943D01*
X61684Y-147910D01*
X61673Y-147834D01*
X61655Y-147754D01*
X61626Y-147666D01*
X61586Y-147586D01*
X61564Y-147546D01*
X61535Y-147513D01*
Y-147510D01*
X61528Y-147506D01*
X61506Y-147484D01*
X61473Y-147459D01*
X61430Y-147426D01*
X61375Y-147393D01*
X61309Y-147364D01*
X61237Y-147346D01*
X61197Y-147342D01*
X61153Y-147339D01*
D02*
G37*
%LPD*%
D11*
X14606Y-237394D02*
Y-59106D01*
Y-237394D02*
X85394D01*
Y-59106D01*
X14606D02*
X85394D01*
M02*
